<svg xmlns="http://www.w3.org/2000/svg" id="Capa_2" data-name="Capa 2" viewBox="0 0 840 600"><g id="lettre"><g><path d="M840,598.52v-90.65c-9.8,1.41-19.81,2.13-30,2.13-100.54,0-184.57-70.64-205.17-165h175.17v-90h-175.17c20.6-94.36,104.63-165,205.17-165,10.19,0,20.2.72,30,2.12V1.48c-9.87-.98-19.87-1.48-30-1.48-165.69,0-300,134.31-300,300s134.31,300,300,300c10.13,0,20.13-.5,30-1.48Z"></path><path d="M0,300c0,165.69,134.31,300,300,300,10.81,0,21.49-.57,32-1.68v-90.74c-10.43,1.6-21.12,2.42-32,2.42-115.98,0-210-94.02-210-210s94.02-210,210-210c10.88,0,21.57.82,32,2.42V1.68c-10.51-1.11-21.19-1.68-32-1.68C134.31,0,0,134.31,0,300Z"></path></g></g></svg>