<svg xmlns="http://www.w3.org/2000/svg" viewBox="0 0 485 500"><path d="M115.452 353.583c-5.001-.951-9.089-2.215-12.265-3.805v-15.92a59.678 59.678 0 0 0 13.099 4.635c4.521 1.031 8.847 1.546 12.978 1.546 4.603 0 8.096-.79 10.479-2.378 2.379-1.58 3.573-3.803 3.573-6.648 0-2.061-.595-3.804-1.788-5.225-1.191-1.427-2.916-2.712-5.178-3.86-2.266-1.148-5.735-2.673-10.418-4.57-7.779-3.166-13.414-6.716-16.907-10.629-3.493-3.923-5.236-8.766-5.236-14.551 0-4.67 1.273-8.807 3.808-12.413 2.539-3.603 6.113-6.396 10.715-8.375 4.603-1.98 9.923-2.971 15.958-2.971 4.919 0 9.287.397 13.097 1.185a52.741 52.741 0 0 1 11.193 3.685v15.441c-6.987-3.488-13.972-5.223-20.958-5.223-4.448 0-7.937.769-10.478 2.315-2.544 1.544-3.811 3.739-3.811 6.593 0 2.061.597 3.76 1.788 5.106 1.189 1.348 2.858 2.54 5.001 3.561 2.141 1.032 5.63 2.538 10.478 4.512 5.633 2.375 10.039 4.654 13.216 6.829 3.175 2.178 5.516 4.754 7.021 7.717 1.508 2.973 2.264 6.634 2.264 10.989 0 7.525-2.716 13.383-8.156 17.575-5.441 4.202-13.559 6.3-24.353 6.3a80.821 80.821 0 0 1-15.12-1.421Zm50.601-57.371h17.384v6.297c5.796-5.384 12.935-8.079 21.43-8.079 5.955 0 11.21 1.248 15.778 3.742 4.565 2.496 8.113 6.02 10.657 10.573 2.54 4.555 3.813 9.84 3.813 15.858 0 5.938-1.273 11.204-3.813 15.796-2.544 4.592-6.092 8.176-10.657 10.752-4.568 2.573-9.823 3.857-15.778 3.857-4.045 0-7.898-.594-11.553-1.778-3.653-1.185-6.749-2.893-9.287-5.108v31.121h-17.98v-83.031h.006Zm46.141 40.265c3.054-3.007 4.586-6.968 4.586-11.874 0-4.906-1.525-8.828-4.586-11.757-3.058-2.93-7.005-4.392-11.848-4.392-3.737 0-7.069.993-10.002 2.972-2.936 1.978-5.044 4.59-6.311 7.842v10.808c1.191 3.325 3.276 5.979 6.255 7.959 2.978 1.978 6.328 2.971 10.062 2.971 4.833-.017 8.786-1.52 11.844-4.529Zm39.764 14.784c-5.2-2.494-9.208-6.018-12.025-10.569-2.818-4.558-4.224-9.88-4.224-15.979 0-5.936 1.406-11.204 4.224-15.796 2.817-4.59 6.825-8.149 12.025-10.689 5.197-2.531 11.253-3.802 18.158-3.802 6.825 0 12.837 1.264 18.038 3.802 5.198 2.54 9.205 6.099 12.021 10.689 2.816 4.592 4.225 9.86 4.225 15.796 0 6.099-1.409 11.421-4.225 15.979-2.816 4.551-6.804 8.075-11.967 10.569-5.163 2.496-11.194 3.743-18.096 3.743-6.907 0-12.957-1.247-18.154-3.743Zm29.704-14.728c2.861-2.97 4.286-6.905 4.286-11.82 0-5.067-1.406-9.044-4.223-11.935-2.817-2.892-6.687-4.335-11.609-4.335s-8.809 1.443-11.671 4.335c-2.858 2.891-4.287 6.868-4.287 11.935 0 4.915 1.446 8.85 4.345 11.82 2.895 2.972 6.77 4.456 11.609 4.456 4.843 0 8.697-1.484 11.55-4.456Zm25.723-40.321h17.383v8.197c2.301-2.774 5.516-4.889 9.641-6.356 4.127-1.462 8.811-2.192 14.054-2.192v13.659c-5.477 0-10.3.831-14.469 2.496-4.168 1.659-7.048 4.2-8.628 7.599v33.615h-17.981v-57.018Z" class="st0"/><path d="M357.687 349.481c-3.454-3.685-5.18-8.81-5.18-15.377v-24.95h-8.331v-12.949h8.331v-17.099h17.98v17.106h13.459v12.949h-13.459v22.572c0 3.322.633 5.717 1.904 7.182 1.267 1.465 3.532 2.197 6.789 2.197 2.617 0 5.117-.633 7.501-1.9v13.42c-3.655 1.583-8.259 2.376-13.809 2.376-6.671-.004-11.728-1.842-15.185-5.527Z" class="st1"/><path d="M312.608 232.239c-6.112-5.265-9.171-12.685-9.171-22.272 0-9.577 3.078-17.043 9.227-22.39 6.147-5.348 14.385-8.017 24.704-8.017 9.369 0 16.826 1.745 22.385 5.225v14.133c-2.544-1.818-5.497-3.166-8.872-4.038-3.375-.87-6.924-1.311-10.659-1.311-5.559 0-10 1.348-13.332 4.04-3.334 2.693-5.001 6.812-5.001 12.354 0 5.543 1.644 9.64 4.938 12.289 3.296 2.656 7.718 3.976 13.277 3.976 7.699 0 14.486-1.861 20.361-5.582v14.015c-5.875 3.639-13.609 5.466-23.215 5.466-10.317.01-18.532-2.619-24.642-7.888Z" class="st0"/><path d="M375.412 236.396c-5.198-2.491-9.207-6.017-12.023-10.57-2.816-4.554-4.226-9.878-4.226-15.975 0-5.938 1.41-11.206 4.226-15.796 2.816-4.592 6.825-8.152 12.023-10.691 5.198-2.531 11.254-3.804 18.16-3.804 6.825 0 12.837 1.266 18.035 3.804 5.199 2.539 9.206 6.099 12.023 10.691 2.817 4.59 4.225 9.858 4.225 15.796 0 6.097-1.408 11.421-4.225 15.975-2.817 4.553-6.806 8.079-11.966 10.57-5.163 2.495-11.194 3.741-18.099 3.741-6.899 0-12.955-1.246-18.153-3.741Zm29.706-14.725c2.859-2.974 4.286-6.907 4.286-11.82 0-5.072-1.406-9.046-4.223-11.939-2.818-2.89-6.688-4.335-11.609-4.335-4.92 0-8.81 1.445-11.67 4.335-2.862 2.893-4.288 6.867-4.288 11.939 0 4.913 1.447 8.846 4.342 11.82 2.899 2.97 6.771 4.452 11.609 4.452 4.846 0 8.697-1.482 11.553-4.452Zm-260.217 14.725c-5.197-2.491-9.203-6.017-12.02-10.57-2.818-4.554-4.226-9.878-4.226-15.975 0-2.438.237-4.764.71-6.976-.434.444-.891.868-1.367 1.279-5.598 4.834-13.16 7.246-22.682 7.246H88.407v26.963H70.31v-83.029h35.006c9.441 0 16.985 2.475 22.619 7.426 5.632 4.95 8.456 11.818 8.456 20.61 0 2.404-.198 4.659-.596 6.763 2.461-2.751 5.496-5.007 9.106-6.769 5.201-2.531 11.256-3.804 18.163-3.804 6.823 0 12.834 1.266 18.034 3.804 5.198 2.539 9.207 6.099 12.024 10.691 2.815 4.59 4.224 9.858 4.224 15.796 0 6.097-1.409 11.421-4.224 15.975-2.817 4.553-6.808 8.079-11.968 10.57-5.163 2.495-11.192 3.741-18.099 3.741-6.902 0-12.953-1.246-18.154-3.741Zm29.709-14.725c2.859-2.974 4.286-6.907 4.286-11.82 0-5.072-1.408-9.046-4.226-11.939-2.817-2.89-6.687-4.335-11.606-4.335-4.922 0-8.812 1.445-11.67 4.335-2.862 2.893-4.288 6.867-4.288 11.939 0 4.913 1.446 8.846 4.343 11.82 2.897 2.97 6.766 4.452 11.606 4.452 4.846 0 8.699-1.482 11.555-4.452Zm43.104-40.324v8.199c2.303-2.775 5.516-4.892 9.649-6.357 4.125-1.462 8.81-2.194 14.052-2.194v13.659c-5.477 0-10.3.833-14.468 2.496-4.167 1.663-7.048 4.203-8.631 7.6v33.613h-17.979v-57.016h17.377Zm-115.019 14.965c10.237 0 15.363-4.318 15.363-12.948 0-4.827-1.372-8.195-4.109-10.096-2.734-1.897-6.488-2.844-11.254-2.844H88.407v25.894h14.288v-.006Z" class="st0"/><path d="M250.635 234.615c-3.456-3.685-5.182-8.806-5.182-15.377v-24.941h-8.331v-12.95h8.331v-17.105h17.982v17.105h13.455v12.95h-13.455v22.569c0 3.325.631 5.72 1.904 7.185 1.271 1.465 3.53 2.196 6.787 2.196 2.619 0 5.117-.632 7.499-1.899v13.42c-3.653 1.581-8.255 2.378-13.81 2.378-6.668-.009-11.732-1.846-15.18-5.531Zm33.037-64.788c-1.907-1.825-2.854-4.12-2.854-6.888 0-2.69.954-4.969 2.854-6.829 1.904-1.861 4.245-2.792 7.023-2.792 2.779 0 5.118.931 7.022 2.792 1.903 1.86 2.86 4.139 2.86 6.829 0 2.775-.957 5.07-2.86 6.888-1.904 1.824-4.25 2.729-7.022 2.729-2.773 0-5.119-.911-7.023-2.729Zm-2.025 11.52h18.099v91.632h-18.099v-91.632Z" class="st1"/><path d="M242.567.659c114.595 0 211.406 77.554 242.571 183.928h-12.39c-31.003-98.82-121.92-170.38-229.25-170.38-107.333 0-198.251 71.56-229.252 170.38H0C31.165 78.213 127.972.659 242.567.659Z" class="st0"/><path d="M242.435 22.206c104.591 0 192.769 68.79 219.912 162.681h-8.225C427.216 95.323 342.625 29.94 242.435 29.94c-100.187 0-184.78 65.383-211.686 154.947h-8.225C49.667 90.996 137.847 22.206 242.435 22.206Zm.136 477.135c-106.988 0-198.475-67.599-235.511-163.139h12.895c36.539 87.911 122.041 149.591 221.685 149.591 99.648 0 185.149-61.68 221.689-149.591h14.749c-37.036 95.54-128.519 163.139-235.507 163.139Z" class="st0"/><path d="M242.702 477.794c-96.625 0-179.243-58.71-212.667-141.686h8.518C71.547 414.714 150.522 470.06 242.702 470.06c92.179 0 171.156-55.346 204.15-133.952h8.518c-33.424 82.976-116.044 141.686-212.668 141.686Z" class="st0"/><style>.st0{fill:#061d7e}.st1{fill:#67a0d5}@media (prefers-color-scheme:dark){.st0,.st1{fill:#fff}}</style></svg>