<svg width="121" height="50" viewBox="0 0 121 50" fill="none" xmlns="http://www.w3.org/2000/svg">
<path d="M44.3746 35.1684V14.8316C44.3746 13.1651 43.4912 11.6236 42.0506 10.7904L24.5083 0.624926C23.0736 -0.208309 21.301 -0.208309 19.8604 0.624926L2.32396 10.7904C0.88927 11.6236 0 13.1651 0 14.8316V35.1684C0 36.8349 0.883341 38.3764 2.32396 39.2096L19.8663 49.3751C21.301 50.2083 23.0736 50.2083 24.5142 49.3751L42.0565 39.2096C43.4912 38.3764 44.3805 36.8349 44.3805 35.1684H44.3746Z" fill="url(#paint0_linear_808_683)"/>
<path d="M21.3486 26.3719C19.4871 25.2946 17.424 24.872 15.4261 25.0387C15.1237 25.0625 14.8214 25.1041 14.525 25.1518C14.519 24.9375 14.519 24.7292 14.525 24.5149C14.5605 23.7293 14.7206 22.9437 15.0052 22.1819C15.1534 21.795 15.3312 21.4082 15.5446 21.0392C15.7581 20.6702 16.0011 20.319 16.262 19.9976C16.7778 19.3727 17.3765 18.837 18.0346 18.4145C18.2125 18.3014 18.3962 18.1943 18.58 18.0931C18.6867 18.3788 18.7994 18.6585 18.9298 18.9323C19.7835 20.7535 21.1767 22.3366 23.0442 23.4139C24.9057 24.4911 26.9688 24.9137 28.9667 24.747C29.269 24.7232 29.5714 24.6816 29.8678 24.634C29.8738 24.8423 29.8738 25.0565 29.8678 25.2708C29.8323 26.0564 29.6722 26.842 29.3876 27.6039C29.2394 27.9907 29.0616 28.3776 28.8481 28.7466C28.6347 29.1156 28.3916 29.4667 28.1308 29.7881C27.615 30.413 27.0162 30.9487 26.3582 31.3713C26.1803 31.4843 25.9965 31.5915 25.8128 31.6926C25.706 31.407 25.5934 31.1272 25.463 30.8475C24.6093 29.0263 23.2161 27.4432 21.3545 26.3659L21.3486 26.3719Z" fill="#320072"/>
<path d="M18.3607 31.5736C19.9139 32.4723 21.6569 32.764 23.305 32.5199C23.3465 32.5199 23.388 32.508 23.4295 32.5021C22.8248 30.8951 21.6865 29.4846 20.0918 28.5621C18.497 27.6396 16.7126 27.3539 15.0229 27.6336C15.0407 27.6693 15.0526 27.711 15.0704 27.7467C15.6869 29.306 16.8074 30.6749 18.3607 31.5736Z" fill="#320072"/>
<path d="M24.3065 21.2356C25.9012 22.1581 27.6916 22.4438 29.3753 22.164C29.3635 22.1224 29.3457 22.0867 29.3279 22.045C28.7113 20.4857 27.5908 19.1168 26.0376 18.2181C24.4843 17.3194 22.7414 17.0277 21.0932 17.2718C21.0518 17.2718 21.0102 17.2837 20.9688 17.2896C21.5735 18.8966 22.7117 20.3071 24.3065 21.2356Z" fill="#320072"/>
<path d="M25.4625 30.8535C25.593 31.1272 25.7115 31.407 25.8123 31.6986C26.002 31.5974 26.1799 31.4903 26.3577 31.3772C27.0158 30.9546 27.6146 30.4249 28.1303 29.7941C28.3912 29.4727 28.6343 29.1275 28.8477 28.7525C29.0611 28.3776 29.239 27.9967 29.3872 27.6098C29.6717 26.848 29.8318 26.0624 29.8674 25.2767C29.8792 25.0625 29.8792 24.8542 29.8674 24.6399C29.571 24.6935 29.2686 24.7292 28.9663 24.753C26.9684 24.9196 24.9053 24.4971 23.0437 23.4198C21.1822 22.3426 19.7831 20.7535 18.9294 18.9382C18.7989 18.6644 18.6804 18.3847 18.5796 18.099C18.3958 18.2002 18.212 18.3073 18.0342 18.4204C17.3761 18.843 16.7773 19.3727 16.2616 20.0036C16.0007 20.325 15.7576 20.6702 15.5442 21.0451C15.3308 21.4201 15.1529 21.801 15.0047 22.1878C14.7202 22.9496 14.5601 23.7353 14.5245 24.5209C14.5127 24.7351 14.5127 24.9435 14.5245 25.1577C14.8209 25.1041 15.1233 25.0684 15.4256 25.0446C17.4235 24.878 19.4866 25.3006 21.3482 26.3778C23.2097 27.4551 24.6029 29.0382 25.4566 30.8594L25.4625 30.8535Z" fill="#320072"/>
<path d="M2.09284 14.7006L12.8115 20.9142C12.9716 20.5273 13.1613 20.1524 13.3747 19.7834C13.5881 19.4144 13.8193 19.0632 14.0743 18.7299L3.34968 12.5104C2.74497 12.1593 1.9802 12.3676 1.63042 12.9747C1.28064 13.5817 1.48814 14.3495 2.09284 14.7006Z" fill="#320072"/>
<path d="M4.81994 37.4182L20.0917 46.2683C21.3959 47.0242 23.0144 47.0242 24.3187 46.2683L35.6776 39.6858L38.1913 38.2276L39.5904 37.4182C39.8631 37.2575 40.1121 37.073 40.3433 36.8647C40.6575 36.573 40.9243 36.2338 41.1377 35.8648C41.3511 35.4958 41.5053 35.097 41.6001 34.6744C41.6654 34.3709 41.7009 34.0614 41.7009 33.746V32.1271V29.2108V16.0457C41.7009 14.534 40.8887 13.1294 39.5904 12.3735L24.3187 3.52339C23.0144 2.76753 21.3959 2.76753 20.0976 3.52339L8.73865 10.1059L6.22498 11.5641L15.675 17.0396C16.3923 16.4385 17.1808 15.9505 18.0167 15.5696C18.0167 15.5339 18.0108 15.5041 18.0048 15.4744L11.2523 11.5582L21.3544 5.70171C21.8761 5.39817 22.5223 5.39817 23.05 5.69575L38.3513 14.5637C38.8671 14.8732 39.1932 15.4327 39.1932 16.0398V27.7467V30.663V33.2699V33.74C39.1932 34.3531 38.8671 34.9185 38.3395 35.222L37.9364 35.4541L35.6835 36.7575L33.1699 38.2157L23.0678 44.0721C22.5461 44.3757 21.8998 44.3757 21.3722 44.0781L6.07084 35.2101C5.55507 34.9006 5.23493 34.3412 5.229 33.7341V22.0271L11.9815 25.9433C12.0112 25.9314 12.0408 25.9136 12.0705 25.9017C11.9756 24.9851 12.0052 24.0507 12.1653 23.1282L2.71533 17.6527V20.569V33.7341C2.71533 35.2458 3.52753 36.6504 4.82587 37.4063L4.81994 37.4182Z" fill="#320072"/>
<path d="M11.9757 25.9552L12.0705 26.0088C12.0705 25.979 12.0646 25.9433 12.0587 25.9136C12.029 25.9255 11.9994 25.9374 11.9697 25.9552H11.9757Z" fill="#320072"/>
<path d="M18.005 15.5755C18.005 15.5755 18.0642 15.5458 18.0939 15.5339L17.999 15.4803C17.999 15.5101 17.999 15.5458 18.0109 15.5755H18.005Z" fill="#320072"/>
<path d="M57.2573 17.9621H52.0521V14.534H50.2617V23.277H52.0521V19.8607H57.2573V23.277H59.0477V14.534H57.2573V17.9621Z" fill="#2DFFF2"/>
<path d="M62.5277 16.6587C62.67 16.5099 62.836 16.4385 63.0376 16.4385H69.6953L68.806 14.5399H63.0317C62.6878 14.5399 62.3558 14.6114 62.0535 14.7482C61.7511 14.8851 61.4843 15.0815 61.2591 15.3136C61.0338 15.5517 60.8559 15.8314 60.7255 16.1588C60.5951 16.4802 60.5239 16.8313 60.5239 17.1944V23.271H69.6953L68.806 21.3725H62.3143V20.6047C62.3143 20.3904 62.3795 20.2178 62.5218 20.069C62.6641 19.9202 62.8301 19.8488 63.0317 19.8488H69.6893L68.8001 17.9502H62.3084V17.1825C62.3084 16.9682 62.3736 16.7956 62.5159 16.6468L62.5277 16.6587Z" fill="#2DFFF2"/>
<path d="M72.345 23.277L74.7223 19.9083L77.0996 23.277H79.3406L76.24 18.9025L79.3406 14.534H77.0996L74.7223 17.8907L72.345 14.534H70.104L73.2046 18.9025L70.104 23.277H72.345Z" fill="#2DFFF2"/>
<path d="M80.0641 23.277H81.8545V20.6999H87.694V23.277H89.4844V17.1944C89.4844 16.8313 89.4192 16.4802 89.2829 16.1588C89.1525 15.8374 88.9687 15.5517 88.7493 15.3136C88.524 15.0756 88.2572 14.8851 87.9549 14.7482C87.6525 14.6054 87.3206 14.5399 86.9767 14.5399H82.5718C82.228 14.5399 81.896 14.6114 81.5937 14.7482C81.2913 14.8851 81.0245 15.0815 80.7992 15.3136C80.5739 15.5517 80.3961 15.8374 80.2657 16.1528C80.1352 16.4742 80.0641 16.8254 80.0641 17.1884V18.8013H80.0522L80.0641 18.8251V23.277ZM81.8545 17.1944C81.8545 16.9801 81.9197 16.8016 82.062 16.6528C82.2043 16.504 82.3703 16.4326 82.5718 16.4326H86.9767C87.1783 16.4326 87.3443 16.504 87.4866 16.6528C87.6288 16.8016 87.694 16.9742 87.694 17.1884V18.8013H81.8545V17.1884V17.1944Z" fill="#2DFFF2"/>
<path d="M93.462 23.277H97.5053C97.8491 23.277 98.1811 23.2056 98.4835 23.0627C98.7858 22.9199 99.0526 22.7294 99.2779 22.4914C99.5032 22.2533 99.681 21.9676 99.8114 21.6462C99.9419 21.3248 100.013 20.9737 100.013 20.6106V17.9502H94.8967L94.0075 19.8488H98.2226V20.6225C98.2226 20.8368 98.1574 21.0154 98.0151 21.1641C97.8728 21.3129 97.7068 21.3844 97.5053 21.3844H93.462C93.2605 21.3844 93.0886 21.3129 92.9463 21.1641C92.804 21.0154 92.7328 20.8368 92.7328 20.6225V17.1944C92.7328 16.9801 92.804 16.8016 92.9463 16.6528C93.0886 16.504 93.2605 16.4326 93.462 16.4326H100.066L99.1652 14.534H93.462C93.1182 14.534 92.7862 14.6054 92.4839 14.7423C92.1815 14.8792 91.9088 15.0696 91.6835 15.3077C91.4523 15.5458 91.2744 15.8314 91.1381 16.1528C91.0077 16.4742 90.9365 16.8254 90.9365 17.1884V20.6166C90.9365 20.9796 91.0017 21.3308 91.1381 21.6522C91.2685 21.9736 91.4523 22.2593 91.6835 22.4973C91.9088 22.7354 92.1815 22.9258 92.4839 23.0627C92.7862 23.2056 93.1182 23.271 93.462 23.271V23.277Z" fill="#2DFFF2"/>
<path d="M109.931 15.3136C109.706 15.0756 109.439 14.8851 109.137 14.7482C108.835 14.6054 108.503 14.5399 108.159 14.5399H103.789C103.446 14.5399 103.114 14.6114 102.811 14.7482C102.509 14.8851 102.242 15.0815 102.017 15.3136C101.792 15.5517 101.614 15.8374 101.483 16.1528C101.353 16.4742 101.282 16.8254 101.282 17.1884V20.6166C101.282 20.9796 101.347 21.3308 101.483 21.6522C101.614 21.9736 101.798 22.2593 102.017 22.4914C102.242 22.7294 102.509 22.9199 102.811 23.0568C103.114 23.1996 103.446 23.2651 103.789 23.2651H108.159C108.503 23.2651 108.829 23.1937 109.137 23.0568C109.439 22.9199 109.706 22.7235 109.931 22.4914C110.157 22.2533 110.335 21.9736 110.465 21.6522C110.595 21.3308 110.666 20.9796 110.666 20.6166V17.1884C110.666 16.8254 110.601 16.4742 110.465 16.1528C110.335 15.8314 110.151 15.5458 109.931 15.3077V15.3136ZM108.876 20.6225C108.876 20.8368 108.811 21.0154 108.669 21.1641C108.526 21.3129 108.36 21.3844 108.159 21.3844H103.789C103.588 21.3844 103.422 21.3129 103.28 21.1641C103.137 21.0154 103.072 20.8368 103.072 20.6225V17.1944C103.072 16.9801 103.137 16.8016 103.28 16.6528C103.422 16.504 103.588 16.4326 103.789 16.4326H108.159C108.36 16.4326 108.526 16.504 108.669 16.6528C108.811 16.8016 108.876 16.9801 108.876 17.1944V20.6225Z" fill="#2DFFF2"/>
<path d="M119.245 14.5459L119.222 16.4385H119.21V20.4976L113.684 14.5459H111.941V23.277H113.732V17.3015L119.233 23.2472L119.257 23.277H121V14.5459H119.245Z" fill="#2DFFF2"/>
<path d="M52.2596 28.8418C52.4019 28.693 52.5679 28.6156 52.7695 28.6156H58.9647L58.0754 26.7171H52.7695C52.4256 26.7171 52.0995 26.7885 51.7913 26.9254C51.4889 27.0623 51.2221 27.2587 50.9968 27.5027C50.7716 27.7467 50.5937 28.0264 50.4633 28.3478C50.3329 28.6692 50.2617 29.0204 50.2617 29.3834V32.7997C50.2617 33.1627 50.3269 33.5139 50.4633 33.8353C50.5937 34.1566 50.7775 34.4423 50.9968 34.6744C51.2221 34.9125 51.4889 35.103 51.7913 35.2399C52.0936 35.3827 52.4256 35.4482 52.7695 35.4482H58.9647L58.0754 33.5496H52.7695C52.5679 33.5496 52.4019 33.4782 52.2596 33.3234C52.1173 33.1746 52.0521 32.9961 52.0521 32.7759V29.3656C52.0521 29.1513 52.1233 28.9727 52.2596 28.818V28.8418Z" fill="#2DFFF2"/>
<path d="M67.3531 28.6156H67.3353V32.7937C67.3353 33.008 67.2642 33.1865 67.1219 33.3413C66.9796 33.496 66.8077 33.5674 66.6061 33.5674H62.5629C62.3613 33.5674 62.1953 33.496 62.0531 33.3413C61.9108 33.1865 61.8456 33.008 61.8456 32.7937V26.7171H60.0552V32.7997C60.0552 33.1627 60.1204 33.5139 60.2567 33.8353C60.3872 34.1566 60.571 34.4423 60.7962 34.6804C61.0215 34.9185 61.2883 35.1089 61.5906 35.2458C61.893 35.3886 62.225 35.4541 62.5688 35.4541H66.618C66.9618 35.4541 67.2938 35.3827 67.5962 35.2458C67.8985 35.1089 68.1653 34.9125 68.3906 34.6804C68.6159 34.4483 68.7937 34.1566 68.9301 33.8353C69.0605 33.5139 69.1317 33.1627 69.1317 32.7997V26.7171H67.3828L67.3531 28.6156Z" fill="#2DFFF2"/>
<path d="M78.487 27.5027C78.2617 27.2646 77.995 27.0742 77.6926 26.9373C77.3903 26.7944 77.0583 26.729 76.7144 26.729H70.4243L71.3136 28.6275H76.7144C76.916 28.6275 77.082 28.699 77.2243 28.8478C77.3665 28.9965 77.4318 29.1691 77.4318 29.3834C77.4318 29.5977 77.3665 29.7762 77.2243 29.925C77.082 30.0738 76.916 30.1512 76.7144 30.1512H72.9854C72.6416 30.1512 72.3096 30.2226 72.0072 30.3654C71.7049 30.5083 71.4381 30.6987 71.2128 30.9368C70.9875 31.1749 70.8097 31.4605 70.6792 31.7819C70.5488 32.1033 70.4777 32.4545 70.4777 32.8175V35.4779H72.2681V32.8235C72.2681 32.6092 72.3392 32.4307 72.4756 32.2759C72.6178 32.1212 72.7838 32.0498 72.9854 32.0498H76.7144C77.0583 32.0498 77.3843 31.9783 77.6926 31.8414C77.995 31.7046 78.2617 31.5082 78.487 31.276C78.7123 31.038 78.8902 30.7582 79.0206 30.4309C79.151 30.1095 79.2222 29.7584 79.2222 29.3953C79.2222 29.0323 79.1569 28.6811 79.0206 28.3597C78.8902 28.0383 78.7064 27.7526 78.487 27.5146V27.5027Z" fill="#2DFFF2"/>
<defs>
<linearGradient id="paint0_linear_808_683" x1="0" y1="24.997" x2="44.3746" y2="24.997" gradientUnits="userSpaceOnUse">
<stop stop-color="#D7FF4B"/>
<stop offset="0.99" stop-color="#2DFFF2"/>
</linearGradient>
</defs>
</svg>
