<svg version="1.2" xmlns="http://www.w3.org/2000/svg" viewBox="0 0 250 123" width="250" height="123"><style>.a{fill:#231f20}</style><path class="a" d="m43.5 30.6h6.5v26.9h-6.5z"/><path fill-rule="evenodd" class="a" d="m99.7 39.7c0 2.4-0.9 4.7-2.9 6.3-1.8 1.5-4.2 2.4-8.2 2.4h-3.9v9.1h-6.2v-26.9h8.5c3.5 0 5.8 0.4 7.5 1.2 1.8 0.7 3 1.8 3.9 3.2 1 1.4 1.3 3 1.3 4.7zm-6.3-0.1c0-1.2-0.3-2.1-1.1-2.8-0.8-0.8-2-1.2-4-1.2h-3.6v7.8h3.8c1.7 0 3-0.4 3.7-1 0.7-0.6 1.2-1.6 1.2-2.8z"/><path fill-rule="evenodd" class="a" d="m101.7 43.9c0-8.8 5.3-13.8 13.2-13.8 7.9 0 13.3 5.1 13.3 13.8 0 8.8-5.4 14-13.3 14-7.9 0-13.2-5.2-13.2-14zm19.4 0c0-5.2-2.4-8.2-6.2-8.2-3.8 0-6.1 3-6.1 8.2 0 5.2 2.3 8.5 6.1 8.5 3.8 0 6.2-3.3 6.2-8.5z"/><path class="a" d="m61 38c0-1.4 1.4-2.3 3.7-2.3 2.8 0 5.3 2 5.7 2.4l3.6-4.5c-0.4-0.4-4-3.5-9.3-3.5-5.9 0-10.1 3.4-10.1 8.1 0 2.3 0.8 3.9 2 5.1 3.7 3.8 11.5 3.3 11.5 6.4 0 1.6-1.8 2.5-4 2.5-2.2 0-4.8-0.9-6.9-2.9l-3.9 4.5c1.9 1.6 5.6 4.1 10.6 4.1 3.5 0 6.4-0.9 8.5-3 1.3-1.3 2.2-3.1 2.2-5.3 0-2.1-0.8-3.6-1.9-4.8-3.8-3.7-11.7-3.6-11.7-6.8z"/><path fill-rule="evenodd" class="a" d="m249.8 31.6v60.2c0 0.3-0.2 0.7-0.4 0.8l-52.2 30.1q-0.2 0.2-0.5 0.2-0.3 0-0.5-0.2l-52.2-30.1c-0.2-0.1-0.4-0.5-0.4-0.8v-60.2c0-0.3 0.2-0.7 0.4-0.8l52.2-30.1c0.3-0.2 0.7-0.2 1 0l52.2 30.1c0.2 0.1 0.4 0.5 0.4 0.8zm-37.5 35.2l30.8 17.8v-49.7l-43.1-24.9v35.7l22.4-13 0.1 0.1 3.3 5.7-0.1 0.1-29 16.7h-0.1l-29-16.8 0.1-0.1 3.3-5.7 0.1 0.1 22.3 12.9v-35.7l-43.1 24.9v49.7l30.8-17.8-22.4-12.9 0.1-0.1 3.3-5.7 0.1 0.1 29 16.7v33.6h-6.7v-25.9l-30.9 17.8 43.1 24.9 43.1-24.9-30.9-17.8v25.9h-6.7v-33.6h0.1l29-16.8 0.1 0.1 3.3 5.7-0.1 0.1z"/><path class="a" d="m78 72.2h6.3v20.1h-6.3z"/><path class="a" d="m114.6 74.4q2-2.5 5.1-2.5 3.3 0 5 1.9 1.6 2 1.7 5.8v12.7h-6.3v-12.5q0-1.6-0.6-2.4-0.7-0.7-2.2-0.7-2 0-2.7 1.2v14.4h-6.3v-27h6.3z"/><path class="a" d="m20.5 65.3l-6 18.8-6-18.8h-8.6v27h6.3v-19.1l6.1 19.1h4.3l6.2-19.2v19.2h6.2v-27z"/><path class="a" d="m78 65.3h6.3v4.5h-6.3z"/><path class="a" d="m72.2 73.7q-1.6-1.8-4.7-1.8-3.5 0-5.5 2.5v-2.2h-0.4-5.9v7.4 12.7h6.3v-12.7-1.5q0.8-1.4 2.7-1.4 1.6 0 2.2 0.7 0.6 0.7 0.6 2.2v12.7h6.3v-12.9q-0.1-3.8-1.6-5.7z"/><path class="a" d="m45.3 72.2v14.1q-0.9 1.5-3 1.5-2.5 0-2.5-2.6v-13h-6.3v13q0 3.6 1.7 5.5 1.7 1.9 5 1.9 3.2 0 5.1-2.2v1.9h6.3v-4.3-15.8z"/><path class="a" d="m93.5 82.2c0-2.3 0.3-5.5 3.2-5.5 1.7 0 3.1 1 3.5 3l5.1-1.2q-0.4-2.7-2.2-4.5-2.3-2.1-6.2-2.1-2.9 0-5 1.2-2.1 1.3-3.2 3.6-1.2 2.3-1.2 5.3v0.3q0 4.9 2.6 7.6 2.5 2.7 6.8 2.7c7 0 8.3-5.7 8.4-6.6l-5.1-1.2c-0.5 1.9-1.9 2.9-3.2 2.9-2.5 0-3.5-1.9-3.5-5.5z"/></svg>