<?xml version="1.0" encoding="UTF-8"?>
<svg version="1.1" viewBox="0 0 485 500" xmlns="http://www.w3.org/2000/svg">
 <g fill="#fff">
  <path class="st0" d="m115.45 353.58c-5.001-0.951-9.089-2.215-12.265-3.805v-15.92c4.171 2.051 8.564 3.603 13.099 4.635 4.521 1.031 8.847 1.546 12.978 1.546 4.603 0 8.096-0.79 10.479-2.378 2.379-1.58 3.573-3.803 3.573-6.648 0-2.061-0.595-3.804-1.788-5.225-1.191-1.427-2.916-2.712-5.178-3.86-2.266-1.148-5.735-2.673-10.418-4.57-7.779-3.166-13.414-6.716-16.907-10.629-3.493-3.923-5.236-8.766-5.236-14.551 0-4.67 1.273-8.807 3.808-12.413 2.539-3.603 6.113-6.396 10.715-8.375 4.603-1.98 9.923-2.971 15.958-2.971 4.919 0 9.287 0.397 13.097 1.185 3.855 0.806 7.611 2.042 11.193 3.685v15.441c-6.987-3.488-13.972-5.223-20.958-5.223-4.448 0-7.937 0.769-10.478 2.315-2.544 1.544-3.811 3.739-3.811 6.593 0 2.061 0.597 3.76 1.788 5.106 1.189 1.348 2.858 2.54 5.001 3.561 2.141 1.032 5.63 2.538 10.478 4.512 5.633 2.375 10.039 4.654 13.216 6.829 3.175 2.178 5.516 4.754 7.021 7.717 1.508 2.973 2.264 6.634 2.264 10.989 0 7.525-2.716 13.383-8.156 17.575-5.441 4.202-13.559 6.3-24.353 6.3-5.081 0-10.119-0.471-15.12-1.421zm50.601-57.371h17.384v6.297c5.796-5.384 12.935-8.079 21.43-8.079 5.955 0 11.21 1.248 15.778 3.742 4.565 2.496 8.113 6.02 10.657 10.573 2.54 4.555 3.813 9.84 3.813 15.858 0 5.938-1.273 11.204-3.813 15.796-2.544 4.592-6.092 8.176-10.657 10.752-4.568 2.573-9.823 3.857-15.778 3.857-4.045 0-7.898-0.594-11.553-1.778-3.653-1.185-6.749-2.893-9.287-5.108v31.121h-17.98v-83.031h6e-3zm46.141 40.265c3.054-3.007 4.586-6.968 4.586-11.874s-1.525-8.828-4.586-11.757c-3.058-2.93-7.005-4.392-11.848-4.392-3.737 0-7.069 0.993-10.002 2.972-2.936 1.978-5.044 4.59-6.311 7.842v10.808c1.191 3.325 3.276 5.979 6.255 7.959 2.978 1.978 6.328 2.971 10.062 2.971 4.833-0.017 8.786-1.52 11.844-4.529zm39.764 14.784c-5.2-2.494-9.208-6.018-12.025-10.569-2.818-4.558-4.224-9.88-4.224-15.979 0-5.936 1.406-11.204 4.224-15.796 2.817-4.59 6.825-8.149 12.025-10.689 5.197-2.531 11.253-3.802 18.158-3.802 6.825 0 12.837 1.264 18.038 3.802 5.198 2.54 9.205 6.099 12.021 10.689 2.816 4.592 4.225 9.86 4.225 15.796 0 6.099-1.409 11.421-4.225 15.979-2.816 4.551-6.804 8.075-11.967 10.569-5.163 2.496-11.194 3.743-18.096 3.743-6.907 0-12.957-1.247-18.154-3.743zm29.704-14.728c2.861-2.97 4.286-6.905 4.286-11.82 0-5.067-1.406-9.044-4.223-11.935-2.817-2.892-6.687-4.335-11.609-4.335s-8.809 1.443-11.671 4.335c-2.858 2.891-4.287 6.868-4.287 11.935 0 4.915 1.446 8.85 4.345 11.82 2.895 2.972 6.77 4.456 11.609 4.456 4.843 0 8.697-1.484 11.55-4.456zm25.723-40.321h17.383v8.197c2.301-2.774 5.516-4.889 9.641-6.356 4.127-1.462 8.811-2.192 14.054-2.192v13.659c-5.477 0-10.3 0.831-14.469 2.496-4.168 1.659-7.048 4.2-8.628 7.599v33.615h-17.981v-57.018z"/>
  <path class="st1" d="m357.69 349.48c-3.454-3.685-5.18-8.81-5.18-15.377v-24.95h-8.331v-12.949h8.331v-17.099h17.98v17.106h13.459v12.949h-13.459v22.572c0 3.322 0.633 5.717 1.904 7.182 1.267 1.465 3.532 2.197 6.789 2.197 2.617 0 5.117-0.633 7.501-1.9v13.42c-3.655 1.583-8.259 2.376-13.809 2.376-6.671-4e-3 -11.728-1.842-15.185-5.527z"/>
  <path class="st0" d="m312.61 232.24c-6.112-5.265-9.171-12.685-9.171-22.272 0-9.577 3.078-17.043 9.227-22.39 6.147-5.348 14.385-8.017 24.704-8.017 9.369 0 16.826 1.745 22.385 5.225v14.133c-2.544-1.818-5.497-3.166-8.872-4.038-3.375-0.87-6.924-1.311-10.659-1.311-5.559 0-10 1.348-13.332 4.04-3.334 2.693-5.001 6.812-5.001 12.354 0 5.543 1.644 9.64 4.938 12.289 3.296 2.656 7.718 3.976 13.277 3.976 7.699 0 14.486-1.861 20.361-5.582v14.015c-5.875 3.639-13.609 5.466-23.215 5.466-10.317 0.01-18.532-2.619-24.642-7.888z"/>
  <path class="st0" d="m375.41 236.4c-5.198-2.491-9.207-6.017-12.023-10.57-2.816-4.554-4.226-9.878-4.226-15.975 0-5.938 1.41-11.206 4.226-15.796 2.816-4.592 6.825-8.152 12.023-10.691 5.198-2.531 11.254-3.804 18.16-3.804 6.825 0 12.837 1.266 18.035 3.804 5.199 2.539 9.206 6.099 12.023 10.691 2.817 4.59 4.225 9.858 4.225 15.796 0 6.097-1.408 11.421-4.225 15.975-2.817 4.553-6.806 8.079-11.966 10.57-5.163 2.495-11.194 3.741-18.099 3.741-6.899 0-12.955-1.246-18.153-3.741zm29.706-14.725c2.859-2.974 4.286-6.907 4.286-11.82 0-5.072-1.406-9.046-4.223-11.939-2.818-2.89-6.688-4.335-11.609-4.335-4.92 0-8.81 1.445-11.67 4.335-2.862 2.893-4.288 6.867-4.288 11.939 0 4.913 1.447 8.846 4.342 11.82 2.899 2.97 6.771 4.452 11.609 4.452 4.846 0 8.697-1.482 11.553-4.452z"/>
  <path class="st0" d="m144.9 236.4c-5.197-2.491-9.203-6.017-12.02-10.57-2.818-4.554-4.226-9.878-4.226-15.975 0-2.438 0.237-4.764 0.71-6.976-0.434 0.444-0.891 0.868-1.367 1.279-5.598 4.834-13.16 7.246-22.682 7.246h-16.909v26.963h-18.097v-83.029h35.006c9.441 0 16.985 2.475 22.619 7.426 5.632 4.95 8.456 11.818 8.456 20.61 0 2.404-0.198 4.659-0.596 6.763 2.461-2.751 5.496-5.007 9.106-6.769 5.201-2.531 11.256-3.804 18.163-3.804 6.823 0 12.834 1.266 18.034 3.804 5.198 2.539 9.207 6.099 12.024 10.691 2.815 4.59 4.224 9.858 4.224 15.796 0 6.097-1.409 11.421-4.224 15.975-2.817 4.553-6.808 8.079-11.968 10.57-5.163 2.495-11.192 3.741-18.099 3.741-6.902 0-12.953-1.246-18.154-3.741zm29.709-14.725c2.859-2.974 4.286-6.907 4.286-11.82 0-5.072-1.408-9.046-4.226-11.939-2.817-2.89-6.687-4.335-11.606-4.335-4.922 0-8.812 1.445-11.67 4.335-2.862 2.893-4.288 6.867-4.288 11.939 0 4.913 1.446 8.846 4.343 11.82 2.897 2.97 6.766 4.452 11.606 4.452 4.846 0 8.699-1.482 11.555-4.452zm43.104-40.324v8.199c2.303-2.775 5.516-4.892 9.649-6.357 4.125-1.462 8.81-2.194 14.052-2.194v13.659c-5.477 0-10.3 0.833-14.468 2.496-4.167 1.663-7.048 4.203-8.631 7.6v33.613h-17.979v-57.016h17.377zm-115.02 14.965c10.237 0 15.363-4.318 15.363-12.948 0-4.827-1.372-8.195-4.109-10.096-2.734-1.897-6.488-2.844-11.254-2.844h-14.288v25.894h14.288v-6e-3z"/>
  <path class="st1" d="m250.64 234.62c-3.456-3.685-5.182-8.806-5.182-15.377v-24.941h-8.331v-12.95h8.331v-17.105h17.982v17.105h13.455v12.95h-13.455v22.569c0 3.325 0.631 5.72 1.904 7.185 1.271 1.465 3.53 2.196 6.787 2.196 2.619 0 5.117-0.632 7.499-1.899v13.42c-3.653 1.581-8.255 2.378-13.81 2.378-6.668-9e-3 -11.732-1.846-15.18-5.531zm33.037-64.788c-1.907-1.825-2.854-4.12-2.854-6.888 0-2.69 0.954-4.969 2.854-6.829 1.904-1.861 4.245-2.792 7.023-2.792 2.779 0 5.118 0.931 7.022 2.792 1.903 1.86 2.86 4.139 2.86 6.829 0 2.775-0.957 5.07-2.86 6.888-1.904 1.824-4.25 2.729-7.022 2.729-2.773 0-5.119-0.911-7.023-2.729zm-2.025 11.52h18.099v91.632h-18.099v-91.632z"/>
  <path d="m242.57 0.659c114.6 0 211.41 77.554 242.57 183.93h-12.39c-31.003-98.82-121.92-170.38-229.25-170.38-107.33 0-198.25 71.56-229.25 170.38h-14.246c31.165-106.37 127.97-183.93 242.57-183.93z"/>
  <path d="m242.44 22.206c104.59 0 192.77 68.79 219.91 162.68h-8.225c-26.906-89.564-111.5-154.95-211.69-154.95-100.19 0-184.78 65.383-211.69 154.95h-8.225c27.143-93.891 115.32-162.68 219.91-162.68z"/>
  <path d="m242.57 499.34c-106.99 0-198.48-67.599-235.51-163.14h12.895c36.539 87.911 122.04 149.59 221.68 149.59 99.648 0 185.15-61.68 221.69-149.59h14.749c-37.036 95.54-128.52 163.14-235.51 163.14z"/>
  <path d="m242.7 477.79c-96.625 0-179.24-58.71-212.67-141.69h8.518c32.994 78.606 111.97 133.95 204.15 133.95 92.179 0 171.16-55.346 204.15-133.95h8.518c-33.424 82.976-116.04 141.69-212.67 141.69z"/>
  <path transform="scale(1.021 .97947)" d="m107.85 402.73q0 1.2533-0.43865 2.4564-0.43865 1.1906-1.2533 2.0053-1.1154 1.1029-2.494 1.6669-1.3661 0.56398-3.409 0.56398h-2.9954v6.0785h-4.8126v-18.662h7.9208q1.7797 0 2.9954 0.31332 1.2282 0.30079 2.1682 0.91491 1.128 0.73944 1.717 1.8925 0.60158 1.153 0.60158 2.7698zm-4.9756 0.1128q0-0.78958-0.42612-1.3536-0.42612-0.57651-0.9901-0.8021-0.75198-0.30079-1.4664-0.32586-0.71438-0.0376-1.905-0.0376h-0.82717v5.5897h1.3786q1.2282 0 2.0178-0.1504 0.80211-0.15039 1.341-0.60158 0.46372-0.40105 0.66425-0.9525 0.21306-0.56398 0.21306-1.3661z" stroke-width="1.1823" aria-label="P"/>
  <path transform="scale(1.021 .97947)" d="m116.44 411.83v-2.9327q-0.9149 0.0752-1.9802 0.21306-1.0653 0.12533-1.6167 0.30079-0.67678 0.21306-1.0402 0.62664-0.35093 0.40106-0.35093 1.0653 0 0.43865 0.0752 0.71438 0.0752 0.27572 0.37599 0.52638 0.28826 0.25066 0.68931 0.37599 0.40105 0.11279 1.2533 0.11279 0.67678 0 1.3661-0.27572 0.70184-0.27573 1.2282-0.72691zm0 2.1807q-0.36345 0.27573-0.90237 0.66425-0.53891 0.38852-1.0152 0.61411-0.66425 0.30079-1.3786 0.43865-0.71438 0.1504-1.5666 0.1504-2.0053 0-3.3588-1.2408-1.3536-1.2408-1.3536-3.1708 0-1.5415 0.68931-2.5191t1.9551-1.5416q1.2533-0.56398 3.1082-0.80211 1.8549-0.23812 3.8476-0.35092v-0.0752q0-1.1656-0.9525-1.6042-0.9525-0.45118-2.8074-0.45118-1.1154 0-2.3812 0.40105-1.2658 0.38852-1.8173 0.60158h-0.41359v-3.3964q0.71438-0.18799 2.3186-0.43865 1.6168-0.26319 3.2335-0.26319 3.8476 0 5.5521 1.1906 1.717 1.1781 1.717 3.7097v9.5751h-4.4742zm19.739 1.4914h-4.5118v-1.4664q-1.1656 0.9525-2.1807 1.4037-1.0152 0.45118-2.3437 0.45118-2.5692 0-4.1108-1.9802t-1.5416-5.339q0-1.7922 0.51385-3.1708 0.52638-1.3912 1.4288-2.3813 0.85224-0.93997 2.0679-1.4538 1.2157-0.52638 2.4314-0.52638 1.2658 0 2.0679 0.27573 0.81464 0.26319 1.6669 0.67677v-5.9907h4.5118zm-4.5118-3.8852v-6.9056q-0.47626-0.20053-1.0026-0.28826-0.52638-0.0877-0.96503-0.0877-1.7797 0-2.6695 1.1154-0.88984 1.1029-0.88984 3.0706 0 2.0679 0.71438 3.0079 0.71437 0.92743 2.2935 0.92743 0.61411 0 1.3034-0.22559 0.68931-0.23812 1.2157-0.61411zm20.064-2.3186h-10.327q0.10027 1.6543 1.2533 2.5316 1.1656 0.8773 3.4215 0.8773 1.4288 0 2.7698-0.51385t2.1181-1.1029h0.50132v3.622q-1.529 0.61411-2.8826 0.88983-1.3536 0.27573-2.9954 0.27573-4.2361 0-6.492-1.905-2.2559-1.905-2.2559-5.4268 0-3.4842 2.1306-5.5145 2.1431-2.0429 5.8654-2.0429 3.434 0 5.1636 1.7421 1.7295 1.7295 1.7295 4.9881zm-4.4868-2.6444q-0.0376-1.4162-0.70184-2.1306-0.66425-0.71437-2.0679-0.71437-1.3034 0-2.1431 0.67677-0.83971 0.67678-0.93997 2.1682zm9.612 8.8482h-4.5118v-19.501h4.5118z" stroke-width="1.1823" aria-label="adel"/>
  <g stroke-width=".98268">
   <path d="m176.31 407.17q-2.0805 0-3.8476-0.61411-1.7546-0.61411-3.0204-1.8298-1.2658-1.2157-1.9677-3.033-0.68931-1.8173-0.68931-4.1985 0-2.2183 0.66424-4.0231t1.9301-3.0956q1.2157-1.2408 3.0079-1.9175 1.8047-0.67678 3.9353-0.67678 1.1781 0 2.1181 0.13786 0.9525 0.12533 1.7546 0.33839 0.83971 0.23813 1.5165 0.53892 0.68931 0.28825 1.2032 0.53891v4.5244h-0.55145q-0.35092-0.30079-0.88983-0.71437-0.52638-0.41359-1.2032-0.81464-0.68931-0.40106-1.4914-0.67678-0.8021-0.27573-1.717-0.27573-1.0152 0-1.9301 0.32586-0.9149 0.31332-1.6919 1.0528-0.73944 0.71437-1.2032 1.8925-0.45118 1.1781-0.45118 2.8575 0 1.7546 0.48878 2.9327 0.50132 1.1781 1.2533 1.8549 0.76451 0.68931 1.7045 0.9901 0.93997 0.28826 1.8549 0.28826 0.8773 0 1.7295-0.26319 0.86477-0.2632 1.5917-0.71438 0.61411-0.36345 1.1405-0.77704 0.52639-0.41359 0.86478-0.71438h0.50131v4.4617q-0.70184 0.31332-1.341 0.58905-0.63918 0.27572-1.341 0.47625-0.9149 0.26319-1.717 0.40105t-2.2058 0.13786z" aria-label="C"/>
   <path d="m198.14 399.46q0 3.4716-2.0303 5.4769-2.0178 1.9927-5.6774 1.9927t-5.6899-1.9927q-2.0178-2.0053-2.0178-5.4769 0-3.4967 2.0303-5.4894 2.0429-1.9927 5.6774-1.9927 3.6847 0 5.69 2.0053 2.0178 2.0053 2.0178 5.4769zm-5.5521 3.4215q0.43865-0.53891 0.65171-1.2909 0.22559-0.76451 0.22559-2.1055 0-1.2408-0.22559-2.0805-0.2256-0.8397-0.62665-1.341-0.40105-0.51385-0.96503-0.72691t-1.2157-0.21306q-0.65171 0-1.1656 0.17546-0.50131 0.17546-0.96503 0.70184-0.41359 0.48879-0.66424 1.341-0.23813 0.85223-0.23813 2.1431 0 1.153 0.21306 2.0053 0.21306 0.8397 0.62665 1.3536 0.40105 0.48879 0.9525 0.71438 0.56398 0.22559 1.2784 0.22559 0.61412 0 1.1656-0.20053 0.56399-0.21305 0.95251-0.70184zm19.82 3.6095h-4.5118v-1.5541q-1.2533 0.9525-2.2935 1.4538-1.0402 0.48878-2.4815 0.48878-2.3311 0-3.597-1.341-1.2533-1.341-1.2533-3.9604v-9.1616h4.5369v6.9808q0 1.0653 0.0627 1.7797 0.0752 0.70184 0.32585 1.1656 0.23813 0.46371 0.71438 0.67677 0.48878 0.21306 1.3536 0.21306 0.57652 0 1.2784-0.21306t1.3536-0.62664v-9.9762h4.5118zm11.473-9.7757h-0.40105q-0.28826-0.10026-0.92744-0.15039-0.63918-0.0501-1.0653-0.0501-0.96504 0-1.7045 0.12533t-1.5917 0.42612v9.4248h-4.5118v-14.074h4.5118v2.0679q1.4914-1.2784 2.5943-1.6919 1.1029-0.42612 2.0303-0.42612 0.23813 0 0.53892 0.0125t0.52638 0.0376z" aria-label="our"/>
   <path d="m232.58 406.37q-0.7269 0.18799-1.5415 0.28826-0.81464 0.11279-1.9927 0.11279-2.6319 0-3.9228-1.0653-1.2784-1.0653-1.2784-3.6471v-6.5798h-1.8549v-3.058h1.8549v-4.0231h4.5118v4.0231h4.2236v3.058h-4.2236v4.9881q0 0.73944 0.0125 1.2909t0.20052 0.9901q0.17546 0.43865 0.61412 0.70184 0.45118 0.25066 1.3034 0.25066 0.35092 0 0.9149-0.1504 0.57652-0.15039 0.80211-0.27572h0.37598z" aria-label="t"/>
   <path d="m245.67 402.43q0 2.1807-1.9551 3.5217-1.9551 1.3285-5.3516 1.3285-1.8799 0-3.409-0.35092-1.529-0.35092-2.4564-0.77704v-3.7097h0.41359q0.33839 0.23812 0.77704 0.52638 0.45118 0.27573 1.2658 0.60158 0.70185 0.28826 1.5917 0.50132 0.88984 0.20052 1.905 0.20052 1.3285 0 1.9677-0.28825 0.63918-0.30079 0.63918-0.87731 0-0.51385-0.37599-0.73944-0.37599-0.23812-1.4288-0.45118-0.50132-0.1128-1.3661-0.23813-0.85223-0.13786-1.5541-0.32585-1.9175-0.50132-2.845-1.5541-0.92743-1.0653-0.92743-2.6444 0-2.0303 1.9175-3.3714 1.9301-1.3536 5.2638-1.3536 1.5792 0 3.0204 0.32586 1.4538 0.31332 2.2684 0.67678v3.5593h-0.38852q-1.0026-0.68931-2.2935-1.1154-1.2784-0.43865-2.5943-0.43865-1.0904 0-1.8423 0.30079-0.73944 0.30079-0.73944 0.85224 0 0.50132 0.33839 0.76451 0.33838 0.26319 1.5917 0.52638 0.68931 0.13786 1.4789 0.27572 0.80211 0.12533 1.6042 0.32586 1.7797 0.46372 2.6319 1.4664 0.85224 0.9901 0.85224 2.4815z" aria-label="s"/>
  </g>
  <path transform="scale(.94314 1.0603)" d="m292.95 384.15h-6.7522l-1.9718-1.7873q-1.4185 1.1206-3.1349 1.6739-1.7022 0.55322-3.603 0.55322-3.9151 0-6.1564-1.8015-2.2271-1.8157-2.2271-4.7237 0-1.2058 0.35463-2.0994t0.93623-1.6029q0.55322-0.69508 1.2767-1.1916 0.72345-0.49648 1.376-0.85111-0.59578-0.43974-1.1348-0.92204t-0.93623-1.0497q-0.383-0.53904-0.59578-1.2058-0.21278-0.6667-0.21278-1.5036 0-0.99297 0.42556-1.8583 0.42556-0.87949 1.2767-1.5746 0.87949-0.72344 2.3548-1.1632 1.4894-0.45392 3.5321-0.45392 1.7164 0 3.064 0.34044 1.3476 0.34045 2.2696 0.9646 0.8653 0.59578 1.3192 1.4469 0.46811 0.83693 0.46811 1.8157 0 0.65252-0.19859 1.4327-0.18441 0.78019-0.69508 1.4753-0.55322 0.73764-1.4611 1.376-0.90786 0.63834-2.4824 1.1348l4.3407 3.8158v-4.5676h5.2911v1.5746q0 1.6739-0.56741 3.2059-0.56741 1.532-1.5604 2.5392l5.4046 4.7237zm-13.363-16.37q0-0.73764-0.22696-1.1632-0.22697-0.43975-0.55323-0.66671-0.34044-0.22696-0.70926-0.2837-0.36882-0.0568-0.59578-0.0568-0.24115 0-0.55322 0.0568-0.29789 0.0567-0.66671 0.29789-0.29789 0.19859-0.52486 0.59578-0.22696 0.383-0.22696 1.0213 0 0.83693 0.68089 1.6171t1.7732 1.6029q0.79437-0.62415 1.1916-1.376 0.41137-0.76601 0.41137-1.6455zm2.142 12.185-6.0571-5.3762q-0.2837 0.2837-0.65252 1.0213-0.36882 0.72345-0.36882 1.6171 0 0.95041 0.36882 1.6455 0.36882 0.68089 0.90786 1.1206 0.56741 0.45393 1.2625 0.68089 0.69507 0.22697 1.3618 0.22697 0.9646 0 1.7022-0.18441 0.75182-0.19859 1.4753-0.75182z" stroke-width="1.3533" aria-label="&amp;"/>
  <path d="m290.75 407.4q-2.0805 0-3.8476-0.61412-1.7546-0.61411-3.0204-1.8298-1.2658-1.2157-1.9677-3.033-0.68931-1.8173-0.68931-4.1985 0-2.2183 0.66424-4.0231 0.66425-1.8047 1.9301-3.0956 1.2157-1.2408 3.0079-1.9175 1.8047-0.67678 3.9353-0.67678 1.1781 0 2.1181 0.13787 0.9525 0.12533 1.7546 0.33839 0.83971 0.23812 1.5165 0.53891 0.68931 0.28826 1.2032 0.53892v4.5244h-0.55145q-0.35092-0.30079-0.88984-0.71438-0.52638-0.41359-1.2032-0.81464-0.68931-0.40105-1.4914-0.67678-0.8021-0.27572-1.717-0.27572-1.0152 0-1.9301 0.32586-0.9149 0.31332-1.692 1.0528-0.73944 0.71438-1.2032 1.8925-0.45119 1.1781-0.45119 2.8575 0 1.7546 0.48878 2.9327 0.50132 1.1781 1.2533 1.8549 0.7645 0.68931 1.7045 0.9901 0.93997 0.28825 1.8549 0.28825 0.87731 0 1.7295-0.26319 0.86477-0.26319 1.5917-0.71438 0.61412-0.36345 1.1405-0.77704 0.52638-0.41358 0.86477-0.71437h0.50132v4.4617q-0.70185 0.31333-1.341 0.58905-0.63917 0.27573-1.341 0.47625-0.9149 0.26319-1.717 0.40106-0.8021 0.13786-2.2058 0.13786z" stroke-width=".98268" aria-label="C"/>
  <path transform="scale(.98597 1.0142)" d="m311.83 397.36v-2.8915q-0.90207 0.0741-1.9524 0.21007-1.0504 0.12357-1.5941 0.29657-0.66728 0.21007-1.0256 0.61785-0.346 0.39542-0.346 1.0503 0 0.4325 0.0741 0.70436 0.0741 0.27185 0.37071 0.51899 0.28421 0.24714 0.67964 0.37071 0.39542 0.11122 1.2357 0.11122 0.66728 0 1.3469-0.27186 0.69199-0.27185 1.211-0.71671zm0 2.1501q-0.35836 0.27185-0.88971 0.65492t-1.0009 0.60549q-0.65492 0.29657-1.3593 0.4325-0.70435 0.14828-1.5446 0.14828-1.9771 0-3.3117-1.2233-1.3346-1.2234-1.3346-3.1263 0-1.5199 0.67963-2.4838 0.67964-0.96385 1.9277-1.5199 1.2357-0.55607 3.0645-0.79085t3.7936-0.346v-0.0741q0-1.1492-0.93913-1.5817-0.93914-0.44485-2.768-0.44485-1.0998 0-2.3478 0.39542-1.2481 0.38307-1.7918 0.59314h-0.40779v-3.3488q0.70435-0.18536 2.286-0.4325 1.5941-0.2595 3.1881-0.2595 3.7936 0 5.4742 1.1739 1.6929 1.1616 1.6929 3.6577v9.4408h-4.4115zm19.63 1.4705h-4.4732v-6.8829q0-0.84028-0.0865-1.6682-0.0865-0.84028-0.29657-1.2357-0.24714-0.45721-0.72906-0.66728-0.46957-0.21007-1.3222-0.21007-0.6055 0-1.2357 0.19772-0.61785 0.19771-1.3469 0.63021v9.8362h-4.4485v-13.877h4.4485v1.5323q1.1863-0.92678 2.2737-1.4211 1.0998-0.49428 2.4343-0.49428 2.249 0 3.5094 1.3098 1.2728 1.3098 1.2728 3.9172zm15.466-6.9323q0 3.4229-2.0018 5.4-1.9895 1.9648-5.5977 1.9648t-5.6101-1.9648q-1.9895-1.9771-1.9895-5.4 0-3.4476 2.0018-5.4124 2.0142-1.9648 5.5977-1.9648 3.633 0 5.6101 1.9771 1.9895 1.9771 1.9895 5.4zm-5.4742 3.3735q0.4325-0.53135 0.64257-1.2728 0.22242-0.75378 0.22242-2.076 0-1.2233-0.22242-2.0513-0.22243-0.82793-0.61786-1.3222-0.39542-0.50664-0.95149-0.7167-0.55606-0.21007-1.1986-0.21007-0.64256 0-1.1492 0.17299-0.49428 0.173-0.95149 0.692-0.40779 0.48192-0.65493 1.3222-0.23478 0.84028-0.23478 2.113 0 1.1368 0.21007 1.9771 0.21007 0.82792 0.61785 1.3346 0.39543 0.48192 0.93913 0.70435 0.55607 0.22242 1.2604 0.22242 0.6055 0 1.1492-0.19771 0.55606-0.21007 0.93913-0.69199zm20.335-3.5712q0 1.7176-0.53135 3.1263-0.519 1.4087-1.3716 2.3231-0.8897 0.96384-2.0142 1.4581-1.1245 0.49428-2.4096 0.49428-1.1863 0-2.0142-0.2595-0.82792-0.24714-1.6929-0.70435v5.7831h-4.4485v-18.968h4.4485v1.4458q1.0256-0.81556 2.0883-1.3222 1.0751-0.50664 2.4714-0.50664 2.595 0 4.0284 1.903 1.4458 1.903 1.4458 5.227zm-4.5845 0.0865q0-2.0266-0.69199-2.941-0.692-0.91442-2.1872-0.91442-0.63021 0-1.2975 0.19771-0.66728 0.18536-1.2728 0.54371v6.9817q0.44485 0.17299 0.95149 0.22242 0.50664 0.0494 1.0009 0.0494 1.767 0 2.632-1.0256 0.86499-1.038 0.86499-3.114zm9.4358 7.0435h-4.4485v-13.877h4.4485zm0.12357-15.854h-4.6957v-3.3735h4.6957zm14.935 9.7373h-10.182q0.0989 1.6311 1.2357 2.4961 1.1492 0.86499 3.3735 0.86499 1.4087 0 2.7309-0.50663 1.3222-0.50664 2.0883-1.0874h0.49429v3.5712q-1.5076 0.60549-2.8421 0.87735-1.3346 0.27185-2.9533 0.27185-4.1767 0-6.4009-1.8783-2.2243-1.8783-2.2243-5.3506 0-3.4352 2.1007-5.4371 2.113-2.0142 5.7831-2.0142 3.3858 0 5.0911 1.7176 1.7053 1.7053 1.7053 4.9181zm-4.4238-2.6073q-0.0371-1.3964-0.692-2.1007-0.65492-0.70435-2.0389-0.70435-1.2851 0-2.113 0.66728t-0.92678 2.1378z" stroke-width=".96888" aria-label="anopie"/>
  <path d="m390.23 401.48q0 2.1807-1.9551 3.5217-1.9551 1.3285-5.3516 1.3285-1.8799 0-3.409-0.35092-1.529-0.35092-2.4565-0.77704v-3.7097h0.41359q0.33839 0.23813 0.77704 0.52638 0.45119 0.27573 1.2658 0.60158 0.70184 0.28826 1.5917 0.50132 0.88983 0.20052 1.905 0.20052 1.3285 0 1.9677-0.28825 0.63918-0.30079 0.63918-0.87731 0-0.51385-0.37598-0.73944-0.37599-0.23812-1.4288-0.45118-0.50131-0.1128-1.3661-0.23813-0.85224-0.13786-1.5541-0.32585-1.9175-0.50132-2.845-1.5541-0.92743-1.0653-0.92743-2.6444 0-2.0303 1.9175-3.3714 1.9301-1.3536 5.2638-1.3536 1.5791 0 3.0204 0.32586 1.4538 0.31332 2.2685 0.67678v3.5593h-0.38852q-1.0026-0.68931-2.2935-1.1154-1.2784-0.43865-2.5943-0.43865-1.0904 0-1.8423 0.30079-0.73944 0.30079-0.73944 0.85224 0 0.50132 0.33839 0.76451t1.5917 0.52638q0.68931 0.13786 1.4789 0.27572 0.80211 0.12533 1.6042 0.32586 1.7797 0.46372 2.6319 1.4664 0.85223 0.9901 0.85223 2.4815z" stroke-width=".98268" aria-label="s"/>
 </g>
</svg>
