<?xml version="1.0" encoding="utf-8"?>
<svg viewBox="0 0 485 500" xmlns="http://www.w3.org/2000/svg">
  <path class="st0" d="M 312.608 232.239 C 306.496 226.974 303.437 219.554 303.437 209.967 C 303.437 200.39 306.515 192.924 312.664 187.577 C 318.811 182.229 327.049 179.56 337.368 179.56 C 346.737 179.56 354.194 181.305 359.753 184.785 L 359.753 198.918 C 357.209 197.1 354.256 195.752 350.881 194.88 C 347.506 194.01 343.957 193.569 340.222 193.569 C 334.663 193.569 330.222 194.917 326.89 197.609 C 323.556 200.302 321.889 204.421 321.889 209.963 C 321.889 215.506 323.533 219.603 326.827 222.252 C 330.123 224.908 334.545 226.228 340.104 226.228 C 347.803 226.228 354.59 224.367 360.465 220.646 L 360.465 234.661 C 354.59 238.3 346.856 240.127 337.25 240.127 C 326.933 240.137 318.718 237.508 312.608 232.239 Z" style="fill: white;"/>
  <path class="st0" d="M 375.412 236.396 C 370.214 233.905 366.205 230.379 363.389 225.826 C 360.573 221.272 359.163 215.948 359.163 209.851 C 359.163 203.913 360.573 198.645 363.389 194.055 C 366.205 189.463 370.214 185.903 375.412 183.364 C 380.61 180.833 386.666 179.56 393.572 179.56 C 400.397 179.56 406.409 180.826 411.607 183.364 C 416.806 185.903 420.813 189.463 423.63 194.055 C 426.447 198.645 427.855 203.913 427.855 209.851 C 427.855 215.948 426.447 221.272 423.63 225.826 C 420.813 230.379 416.824 233.905 411.664 236.396 C 406.501 238.891 400.47 240.137 393.565 240.137 C 386.666 240.137 380.61 238.891 375.412 236.396 Z M 405.118 221.671 C 407.977 218.697 409.404 214.764 409.404 209.851 C 409.404 204.779 407.998 200.805 405.181 197.912 C 402.363 195.022 398.493 193.577 393.572 193.577 C 388.652 193.577 384.762 195.022 381.902 197.912 C 379.04 200.805 377.614 204.779 377.614 209.851 C 377.614 214.764 379.061 218.697 381.956 221.671 C 384.855 224.641 388.727 226.123 393.565 226.123 C 398.411 226.123 402.262 224.641 405.118 221.671 Z" style="fill: white;"/>
  <path class="st0" d="M 144.901 236.396 C 139.704 233.905 135.698 230.379 132.881 225.826 C 130.063 221.272 128.655 215.948 128.655 209.851 C 128.655 207.413 128.892 205.087 129.365 202.875 C 128.931 203.319 128.474 203.743 127.998 204.154 C 122.4 208.988 114.838 211.4 105.316 211.4 L 88.407 211.4 L 88.407 238.363 L 70.31 238.363 L 70.31 155.334 L 105.316 155.334 C 114.757 155.334 122.301 157.809 127.935 162.76 C 133.567 167.71 136.391 174.578 136.391 183.37 C 136.391 185.774 136.193 188.029 135.795 190.133 C 138.256 187.382 141.291 185.126 144.901 183.364 C 150.102 180.833 156.157 179.56 163.064 179.56 C 169.887 179.56 175.898 180.826 181.098 183.364 C 186.296 185.903 190.305 189.463 193.122 194.055 C 195.937 198.645 197.346 203.913 197.346 209.851 C 197.346 215.948 195.937 221.272 193.122 225.826 C 190.305 230.379 186.314 233.905 181.154 236.396 C 175.991 238.891 169.962 240.137 163.055 240.137 C 156.153 240.137 150.102 238.891 144.901 236.396 Z M 174.61 221.671 C 177.469 218.697 178.896 214.764 178.896 209.851 C 178.896 204.779 177.488 200.805 174.67 197.912 C 171.853 195.022 167.983 193.577 163.064 193.577 C 158.142 193.577 154.252 195.022 151.394 197.912 C 148.532 200.805 147.106 204.779 147.106 209.851 C 147.106 214.764 148.552 218.697 151.449 221.671 C 154.346 224.641 158.215 226.123 163.055 226.123 C 167.901 226.123 171.754 224.641 174.61 221.671 Z M 217.714 181.347 L 217.714 189.546 C 220.017 186.771 223.23 184.654 227.363 183.189 C 231.488 181.727 236.173 180.995 241.415 180.995 L 241.415 194.654 C 235.938 194.654 231.115 195.487 226.947 197.15 C 222.78 198.813 219.899 201.353 218.316 204.75 L 218.316 238.363 L 200.337 238.363 L 200.337 181.347 L 217.714 181.347 Z M 102.695 196.312 C 112.932 196.312 118.058 191.994 118.058 183.364 C 118.058 178.537 116.686 175.169 113.949 173.268 C 111.215 171.371 107.461 170.424 102.695 170.424 L 88.407 170.424 L 88.407 196.318 L 102.695 196.318 L 102.695 196.312 Z" style="fill: white;"/>
  <path class="st1" d="M 250.635 234.615 C 247.179 230.93 245.453 225.809 245.453 219.238 L 245.453 194.297 L 237.122 194.297 L 237.122 181.347 L 245.453 181.347 L 245.453 164.242 L 263.435 164.242 L 263.435 181.347 L 276.89 181.347 L 276.89 194.297 L 263.435 194.297 L 263.435 216.866 C 263.435 220.191 264.066 222.586 265.339 224.051 C 266.61 225.516 268.869 226.247 272.126 226.247 C 274.745 226.247 277.243 225.615 279.625 224.348 L 279.625 237.768 C 275.972 239.349 271.37 240.146 265.815 240.146 C 259.147 240.137 254.083 238.3 250.635 234.615 Z M 283.672 169.827 C 281.765 168.002 280.818 165.707 280.818 162.939 C 280.818 160.249 281.772 157.97 283.672 156.11 C 285.576 154.249 287.917 153.318 290.695 153.318 C 293.474 153.318 295.813 154.249 297.717 156.11 C 299.62 157.97 300.577 160.249 300.577 162.939 C 300.577 165.714 299.62 168.009 297.717 169.827 C 295.813 171.651 293.467 172.556 290.695 172.556 C 287.922 172.556 285.576 171.645 283.672 169.827 Z M 281.647 181.347 L 299.746 181.347 L 299.746 272.979 L 281.647 272.979 L 281.647 181.347 Z" style="fill: white;"/>
  <path d="M 242.567 0.659 C 357.162 0.659 453.973 78.213 485.138 184.587 L 472.748 184.587 C 441.745 85.767 350.828 14.207 243.498 14.207 C 136.165 14.207 45.247 85.767 14.246 184.587 L 0 184.587 C 31.165 78.213 127.972 0.659 242.567 0.659 Z" style="fill: white;"/>
  <path d="M 242.435 22.206 C 347.026 22.206 435.204 90.996 462.347 184.887 L 454.122 184.887 C 427.216 95.323 342.625 29.94 242.435 29.94 C 142.248 29.94 57.655 95.323 30.749 184.887 L 22.524 184.887 C 49.667 90.996 137.847 22.206 242.435 22.206 Z" style="fill: white;"/>
  <path d="M 242.571 499.341 C 135.583 499.341 44.096 431.742 7.06 336.202 L 19.955 336.202 C 56.494 424.113 141.996 485.793 241.64 485.793 C 341.288 485.793 426.789 424.113 463.329 336.202 L 478.078 336.202 C 441.042 431.742 349.559 499.341 242.571 499.341 Z" style="fill: white;"/>
  <path d="M 242.702 477.794 C 146.077 477.794 63.459 419.084 30.035 336.108 L 38.553 336.108 C 71.547 414.714 150.522 470.06 242.702 470.06 C 334.881 470.06 413.858 414.714 446.852 336.108 L 455.37 336.108 C 421.946 419.084 339.326 477.794 242.702 477.794 Z" style="fill: white;"/>
</svg>