<?xml version="1.0" encoding="UTF-8"?>
<!-- Generator: Adobe Illustrator 28.2.0, SVG Export Plug-In . SVG Version: 6.00 Build 0)  -->
<svg enable-background="new 0 0 777 152" version="1.1" viewBox="0 0 777 152" xml:space="preserve" xmlns="http://www.w3.org/2000/svg">
<style type="text/css">
	.st0{fill:#176AA7;}
	.st1{fill:#4DA2D2;}
	.st2{fill:#4DA2D2;stroke:#4DA2D2;}
</style>

	<path class="st0" d="m89.7 106.5h-5.9c-1.7 0-1.9-0.3-1.6-2.1l6.3-36c1.3-7.5 1.4-14.4-8-14.4-4.3 0-9 2.1-11.3 6.3-0.7 1.3-1.2 3.9-1.5 5.3l-6.8 38.8c-0.2 1.3-0.6 2.1-2.1 2.1h-6.2c-1.4 0-1.8-0.4-1.6-1.9l6.8-38.3c1.3-7.2-0.7-12.6-8.6-12.6-4.4 0-8.6 1.9-11.2 6.1-0.9 1.5-1.4 4.1-1.7 5.9l-6.8 38.8c-0.3 1.7-0.8 2.1-2.5 2.1h-5.7c-1.5 0-1.9-0.5-1.6-2.1l7.9-44.5c0.6-3.2 0.7-4.8 3.5-7.2 3.9-3.4 14.6-4.9 19.1-4.9 6.6 0 12.2 1.3 15.3 6.8 5.8-5.3 11.5-6.8 18.6-6.8 11.5 0 17.1 5 15 16.6l-7.1 40c-0.2 1.3-0.7 2-2.3 2z"/>
	
		<path class="st0" d="m111.7 106.7h-6.5c-1.2 0-1.4-0.4-1.2-1.5l9.5-54.1c0.3-1.4 0.8-1.8 2.2-1.8h5.9c1.8 0 2 0.3 1.7 2.1l-9.4 53.2c-0.3 1.6-0.6 2.1-2.2 2.1z"/>
		<path class="st0" d="m120.5 39.5c-3.3 0-5.6-2.2-5-5.8 0.6-3.4 3.6-6 7-6 3.7 0 5.4 2.5 4.8 6.2-0.5 3.3-3.6 5.6-6.8 5.6z"/>
	
	<path class="st0" d="m168.8 106.7h-5.8c-1.6 0-2.3-0.2-2-2l6.6-37.4c0.4-2.3 1-5.4 0.4-7.6-1.4-4.7-6.1-6-10.9-6-3.8 0-8.7 0.9-11.5 4.3-1.3 1.6-1.9 3.8-2.2 5.6l-7.2 40.9c-0.3 1.6-0.7 2.2-2.4 2.2h-6.1c-1.4 0-1.6-0.8-1.4-2.1l7.9-44.6c0.5-2.7 1.1-4.8 3.4-6.6 4.9-4 16.8-5.3 22.3-5.3 8 0 16.2 1.5 18.2 9.6 0.6 2.4 0 6.1-0.4 8.6l-6.7 38.2c-0.2 1.2-0.7 2.2-2.2 2.2z"/>
	<path class="st0" d="m237.3 26c-5.5 5.7-10.1 25.7-10.1 25.7-3.2-2.4-6.8-3.7-11.2-3.7-17.3 0-29.1 16.2-31.9 31.8-2.9 16.6 3.8 28.2 21.2 28.2 6 0 16.9-1.7 21.6-6.8 1.6-1.8 2.1-3.3 2.5-5.5l12.6-71.8s-1.7-1-4.7 2.1zm-17.3 66.4c-1.2 6.6-5 8.8-11.4 8.8-13.4 0-16.1-12.5-14-24.1 1.8-10.3 9.5-23.3 21.6-23.3 4.2 0 7.3 1.4 9.9 4.1l-6.1 34.5z"/>
	<path class="st0" d="m254.6 108.1c-6 0-11-1.4-14.6-5.8-1.5-1.8-2.7-4.2-2.2-6.8 0.5-2.7 3-4.9 5.6-4.9 5.6 0 3.1 11.1 13.1 11.1 5 0 9.2-3.3 10.1-8.4 2.5-14.4-25.4-10.7-22-29.9 1.8-10 10.9-15.4 20.2-15.4 5.5 0 11.5 1.5 14.2 6.2 0.9 1.4 1.6 3.1 1.2 5-0.4 2.3-2.6 4.2-5 4.2-6 0-2.7-9.7-11.5-9.7-4.8 0-9 3.2-9.8 8.1-2.4 13.7 25.8 9.9 22.3 29.7-1.8 11.1-11.1 16.6-21.6 16.6z"/>
	<path class="st0" d="m374.6 59.2c-4.4 0-3.4-5.9-10.2-5.9-5.2 0-7 3.3-7.8 7.9l-7.7 43.5c-0.2 1.1-0.7 2-2 2h-6c-1.7 0-2.3-0.1-2-2l8.1-46.2c0.4-2.2 0.7-4.1 2.7-5.8 3.9-3.3 15.2-4.8 19.8-4.8 4.3 0 11.3 0.8 10.3 6.4-0.3 2.6-2.6 4.9-5.2 4.9z"/>
	
		<path class="st0" d="m393.7 39.5c-3.3 0-5.6-2.2-5-5.8 0.6-3.4 3.6-6 7-6 3.7 0 5.4 2.5 4.8 6.2-0.5 3.3-3.6 5.6-6.8 5.6z"/>
		<path class="st0" d="m384.9 106.7h-6.5c-1.2 0-1.4-0.4-1.2-1.5l9.5-54.1c0.2-1.4 0.8-1.8 2.2-1.8h5.9c1.8 0 2 0.3 1.7 2.1l-9.4 53.2c-0.3 1.6-0.6 2.1-2.2 2.1z"/>
	
	<path class="st0" d="m441 106.7h-5.8c-1.5 0-2.3-0.2-2-2l6.6-37.4c0.4-2.3 1-5.4 0.4-7.6-1.4-4.7-6.1-6-10.9-6-3.8 0-8.7 0.9-11.5 4.3-1.3 1.6-1.9 3.8-2.2 5.6l-7.2 40.9c-0.3 1.6-0.7 2.2-2.4 2.2h-6.1c-1.4 0-1.6-0.8-1.4-2.1l7.9-44.6c0.5-2.7 1.1-4.8 3.4-6.6 4.9-4 16.8-5.3 22.3-5.3 8 0 16.2 1.5 18.2 9.6 0.6 2.4 0 6.1-0.4 8.6l-6.7 38.2c-0.2 1.2-0.7 2.2-2.2 2.2z"/>
	<path class="st0" d="m314.8 48c-5.4 0-17.5 2-21.6 7.1-2 2.3-2.4 6-2.9 8.6l-11.8 67c-0.1 0.4 1.1 1.4 3.4-0.8 8.6-8 11.2-25.9 11.2-25.9 3.3 2.7 6.5 4 11.3 4 17.2 0 28.8-17.5 31.4-32.6 2.8-16.1-4-27.4-21-27.4zm10.5 29.5c-1.7 9.9-8.4 23.8-20.6 23.8-4 0-7.5-1.7-10.5-3.7l6-33.8c1.2-6.9 4-9.7 11.4-9.7 13 0 15.7 12.1 13.7 23.4z"/>
	<path class="st0" d="m508 49.6c-3.2 0-7.5 1.6-11.2 1.6-2.4 0-4.3-0.7-6.3-1.7-2.4-1.1-5.7-1.4-8.4-1.4-11.3 0-21.2 7.4-23.3 19.1-1 5.8 0.4 11.4 4.1 15.3 0.8 0.8 1.6 1.3 2.5 2-3.7 2.7-11.3 8.5-12.1 13.1-0.9 5 3.4 6.3 7.2 7.4-5.6 2.9-13.2 9-14.3 15.2-0.5 2.7 0.2 4.9 1.6 6.9 3.6 5.2 12.1 6 18.6 6 10.2 0 21.9-3.2 29.7-11.6 2.6-2.9 4.7-6.2 5.4-9.9 1.7-9.7-6.7-13.4-15.1-13.4h-0.2l-11.7-0.7c-2.8-0.1-11.4 0-10.7-4.2 0.4-2.4 3.7-5.4 5.8-7 2 0.6 4.1 0.9 6.3 0.9 11.3 0 21.5-7 23.6-18.8 0.8-4.5 0.2-8.1-1.7-11.7l9.8-2.2c0.6-0.1 1.4-0.3 1.5-1.1 0-1.2 0-3.8-1.1-3.8zm-42.8 56.1c3.7 0.3 7.3 0.4 11.1 0.6 5.5 0.1 17-0.3 15.6 7.6-1.4 8.1-14.5 12.1-21.2 12.1-6 0-15.6-1.8-14.3-9.6 1-4.9 5.1-7.7 8.8-10.7zm24.7-36.9c-1.1 6.4-5.5 12-12.4 12-8 0-10.6-8.2-9.4-15.2 1.2-6.9 6-12.3 13.2-12.3 8 0 9.8 8.8 8.6 15.5z"/>


	
		<path class="st1" d="m533.5 107.7c-4.8 0-7.9-1.3-11.2-4l-4.7 26.7c-0.2 1.2-0.8 1.9-2.1 1.9h-6c-1.4 0-2-0.4-1.7-2l11.8-66.8c0.5-2.7 0.9-6.3 2.8-8.6 4.1-5.1 16.2-7.1 21.6-7.1 17 0 23.7 11.3 20.9 27.4-2.7 15.1-14.2 32.5-31.4 32.5zm7.2-53.7c-7.3 0-10.1 2.9-11.3 9.7l-5.9 33.7c3.1 2 6.5 3.6 10.5 3.6 12.2 0 18.8-13.9 20.5-23.7 2-11.3-0.8-23.3-13.8-23.3z"/>
	


	
		<path class="st2" d="m619.4 51-8 39.6c-0.2 1.1-0.4 2.4-0.5 3.9-0.3 3.6-0.3 7.5 0.2 11.6h-9.3l0.9-13.1c-1.9 2.7-3.7 5.5-5.5 8.2-3.5 4-7.6 6-12.3 6-5.6 0-9.6-2.5-12.1-7.5-2.1-4.1-2.8-9.2-2.3-15.3 0.8-9.3 4.4-17.3 10.8-24 6.6-6.9 14.5-10.4 23.7-10.4 2.4 0 4.8 0.2 7.3 0.5 2.4 0.4 4.8 0.5 7.1 0.5zm-9.7 7.2c-3.2-0.6-5.9-0.9-8.2-1-6.3 0-11.4 2.7-15.5 8.2-3.6 4.9-5.7 10.7-6.3 17.6-0.9 10.7 1.9 16 8.5 15.9 2.6 0 5.8-2.2 9.7-6.5s6.3-8.6 7.2-13l4.6-21.2z"/>
		<path class="st2" d="m664.4 106h-7.3l-0.5-4.6c-6.7 4-12.2 6-16.4 6-5.9 0-10.3-2.5-13.3-7.4-2.6-4.4-3.6-9.9-3-16.6 0.8-8.8 3.6-16.3 8.6-22.7 5.7-7.2 12.7-10.8 21.1-10.8 5.2 0 9.1 2.1 11.8 6.4l5.1-26.7h8.5l-14.6 76.4zm-0.5-41.5c-1.5-2.7-3-4.6-4.6-5.6s-4.1-1.5-7.5-1.5c-5.4 0-9.8 2.9-13.1 8.8-2.7 4.7-4.3 10.1-4.8 16.1-0.4 5.1 0.2 9.1 1.8 12.1 1.9 3.3 4.8 5 8.9 5 4.4 0 8.9-1.7 13.5-5l5.8-29.9z"/>
		<path class="st2" d="m690 81.2c-0.2 1-0.4 2.5-0.5 4.4-0.1 2.1 0.2 4.4 1.1 6.9 0.8 2.5 2.6 4.4 5.2 5.7 2.3 1.1 4.7 1.6 7.2 1.7 4.1 0 9.4-2.4 15.8-7.1l3.1 6.1c-7.1 5.6-14.1 8.3-21.2 8.3-14.1 0-20.9-7.1-20.4-21.4 0.3-9.3 3.2-17.4 8.6-24.2 6.1-7.5 13.9-11.2 23.6-11.2 5 0 8.9 1.2 11.8 3.5 3.2 2.6 4.6 6.5 4.1 11.6-0.3 3.2-2 6.2-5.3 8.9-2.8 2.3-5.9 3.8-9.3 4.5-7.6 1.7-13.8 2.6-18.5 2.6-1.6 0-3.4-0.1-5.3-0.3zm30.2-16.6c0.2-2.6-0.4-4.4-1.9-5.4s-4.1-1.6-7.8-1.6c-5.9 0-10.7 2.5-14.5 7.4-2.3 3.1-3.9 6.3-4.8 9.7 4.8 0.2 11.1-0.4 18.9-1.9 6.4-1.2 9.8-4 10.1-8.2z"/>
		<path class="st2" d="M741.1,106h-8.5l14.9-76.5h8.5L741.1,106z"/>
	

</svg>
