<?xml version="1.0" encoding="UTF-8"?>
<svg id="Capa_1" data-name="Capa 1" xmlns="http://www.w3.org/2000/svg" xmlns:xlink="http://www.w3.org/1999/xlink" viewBox="0 0 1178.28 1221.24">
  <defs>
    <style>
      .cls-1 {
        fill: url(#linear-gradient);
      }

      .cls-1, .cls-2, .cls-3, .cls-4, .cls-5, .cls-6, .cls-7, .cls-8, .cls-9 {
        stroke-width: 0px;
      }

      .cls-2 {
        fill: url(#linear-gradient-6);
      }

      .cls-3 {
        fill: url(#linear-gradient-5);
      }

      .cls-4 {
        fill: #0b1742;
      }

      .cls-5 {
        fill: url(#linear-gradient-2);
      }

      .cls-6 {
        fill: #e52330;
      }

      .cls-7 {
        fill: url(#linear-gradient-7);
      }

      .cls-8 {
        fill: url(#linear-gradient-3);
      }

      .cls-9 {
        fill: url(#linear-gradient-4);
      }
    </style>
    <linearGradient id="linear-gradient" x1="606.27" y1="192.74" x2="610.64" y2="217.54" gradientUnits="userSpaceOnUse">
      <stop offset="0" stop-color="#d95c13"/>
      <stop offset=".27" stop-color="#e57b0e"/>
      <stop offset=".54" stop-color="#ef940a"/>
      <stop offset=".8" stop-color="#f4a307"/>
      <stop offset="1" stop-color="#f7a907"/>
    </linearGradient>
    <linearGradient id="linear-gradient-2" x1="676.76" y1="22.25" x2="932.36" y2="277.85" gradientUnits="userSpaceOnUse">
      <stop offset="0" stop-color="#fecd55"/>
      <stop offset=".01" stop-color="#fdca4f"/>
      <stop offset=".14" stop-color="#f8b11e"/>
      <stop offset=".2" stop-color="#f6a80b"/>
      <stop offset=".49" stop-color="#f5a50b"/>
      <stop offset=".65" stop-color="#f49d0b"/>
      <stop offset=".77" stop-color="#f2900b"/>
      <stop offset=".88" stop-color="#ef7c0b"/>
      <stop offset=".98" stop-color="#ec640b"/>
      <stop offset="1" stop-color="#eb5d0b"/>
    </linearGradient>
    <linearGradient id="linear-gradient-3" x1="662.91" y1="152.81" x2="1085.46" y2="306.61" gradientUnits="userSpaceOnUse">
      <stop offset="0" stop-color="#a8a6a6"/>
      <stop offset=".05" stop-color="#c4c3c3"/>
      <stop offset=".11" stop-color="#dedddd"/>
      <stop offset=".16" stop-color="#f0f0f0"/>
      <stop offset=".22" stop-color="#fbfbfb"/>
      <stop offset=".29" stop-color="#fff"/>
      <stop offset=".52" stop-color="#fcfcfc"/>
      <stop offset=".65" stop-color="#f4f4f4"/>
      <stop offset=".76" stop-color="#e6e5e5"/>
      <stop offset=".86" stop-color="#d2d1d1"/>
      <stop offset=".95" stop-color="#b9b7b7"/>
      <stop offset="1" stop-color="#a8a6a6"/>
    </linearGradient>
    <linearGradient id="linear-gradient-4" x1="824" y1="378.68" x2="824" y2="264.96" gradientUnits="userSpaceOnUse">
      <stop offset="0" stop-color="#89181e" stop-opacity=".3"/>
      <stop offset=".5" stop-color="#b31829" stop-opacity="0"/>
      <stop offset=".56" stop-color="#b01828" stop-opacity=".06"/>
      <stop offset=".67" stop-color="#a91826" stop-opacity=".23"/>
      <stop offset=".8" stop-color="#9e1823" stop-opacity=".5"/>
      <stop offset=".95" stop-color="#8e181f" stop-opacity=".87"/>
      <stop offset="1" stop-color="#89181e"/>
    </linearGradient>
    <linearGradient id="linear-gradient-5" x1="718.94" y1="21.38" x2="1012.2" y2="128.12" gradientUnits="userSpaceOnUse">
      <stop offset=".09" stop-color="#fecd55"/>
      <stop offset=".69" stop-color="#f5a824" stop-opacity=".36"/>
      <stop offset="1" stop-color="#f2970c" stop-opacity=".05"/>
    </linearGradient>
    <linearGradient id="linear-gradient-6" x1="757.52" y1="389.95" x2="903.7" y2="195.97" gradientUnits="userSpaceOnUse">
      <stop offset=".01" stop-color="#e30335" stop-opacity="0"/>
      <stop offset=".13" stop-color="#c9092d" stop-opacity=".22"/>
      <stop offset=".26" stop-color="#b21025" stop-opacity=".43"/>
      <stop offset=".4" stop-color="#a11520" stop-opacity=".58"/>
      <stop offset=".52" stop-color="#97181d" stop-opacity=".67"/>
      <stop offset=".64" stop-color="#94191c" stop-opacity=".7"/>
      <stop offset="1" stop-color="#96191d"/>
    </linearGradient>
    <linearGradient id="linear-gradient-7" x1="1039.65" y1="284.64" x2="1039.65" y2="265.46" gradientUnits="userSpaceOnUse">
      <stop offset="0" stop-color="#d8d9d9"/>
      <stop offset=".19" stop-color="#d0d1d1"/>
      <stop offset=".46" stop-color="#bdbebe"/>
      <stop offset=".79" stop-color="#9c9e9d"/>
      <stop offset="1" stop-color="#848685"/>
    </linearGradient>
  </defs>
  <g>
    <path class="cls-1" d="m646.24,211.27c.69-7.14,1.8-14.39,3.35-21.75l.05-.25c-.21.02-.42.04-.6.06-10.84,1.09-27.97,2.37-40.62,4.01-22.15,2.91-42.31,5.84-44,7.85-4.56,5.4,25.77,9.39,72.06,10.01,3.15.03,6.44.05,9.75.07Z"/>
    <path class="cls-5" d="m879.07,0c-72.94,0-144.95,41.31-189.39,101.78,0,0-103.53,7.42-108.95,16.62-16.35,31.26-16.74,83.62-16.74,83.62l.05-.18c.07-.22.21-.43.4-.65,1.69-2.01,21.84-4.94,43.99-7.86,12.66-1.64,29.78-2.91,40.62-4,.19-.02.37-.04.58-.07,0,0,0,0,0,0,35.96-3.56,104.53-8.48,143.73-9.55,96.08-2.65,178.95-1.9,236.4.72C1046.46,79.97,980.61,0,879.07,0Z"/>
    <path class="cls-6" d="m995.92,265.47c-29.57-.28-138.91-1.16-187.53.39-.19.02-22.57.82-23.25.84-52.45,2.13-96.87,5.48-133.05,9.03,0,0-.02,0-.02.02,18.42,61.12,73.15,102.94,146.57,102.94,77.37,0,153.78-46.65,197.27-113.22h0Z"/>
    <path class="cls-8" d="m1029.85,180.44c-57.45-2.62-140.32-3.39-236.41-.74-39.23,1.08-107.84,6-143.79,9.56h0c-.84,4-2.12,10.56-3.12,19.24,0,.17-.03.34-.04.51-.34,2.96-.59,5.91-.77,8.84,0,.18-.03.38-.04.57-.17,2.87-.26,5.71-.29,8.51-.03,1.77.03,3.54.08,5.3,0,1.48,0,2.95.07,4.4.13,3.11.33,6.23.64,9.26.08.88.24,1.75.32,2.61.29,2.38.56,4.76.95,7.09.16.95.35,1.88.51,2.82.4,2.26.84,4.51,1.34,6.72.18.89.4,1.73.62,2.61.57,2.29,1.15,4.58,1.82,6.82.1.39.21.77.33,1.16,36.18-3.56,80.63-6.9,133.12-9.03.64-.02,23.04-.83,23.22-.85,48.61-1.53,157.94-.66,187.54-.38h0c4.72.04,7.6.06,7.6.06,24.85.38,34.99.61,60.88,1.97,11.96.64,31.72,1.39,32.78,3.98,0,.09.01-.02,0,.09-.02.07-.06.15-.09.22,0,0,0,0,0,0,16.36-30.24,16.6-80.37,16.6-80.37.84-4.35-30.44-8.57-83.88-10.99"/>
    <path class="cls-9" d="m995.92,265.47c-43.49,66.57-119.9,113.22-197.27,113.22-34.89,0-65.56-9.44-90.12-25.92-27.12-18.19-46.78-44.95-56.45-77.02,0-.01.02-.01.02-.02,36.18-3.55,80.6-6.9,133.05-9.03.68-.02,23.05-.82,23.25-.84,48.62-1.54,157.96-.67,187.53-.39h0Z"/>
    <path class="cls-3" d="m1001.99,96.74c5.49.02,15.05,0,21.63,0C1003.48,39,949.98,0,879.07,0s-144.95,41.35-189.39,101.78c31.97-3,73.73-5.37,114.63-6.09,7.99-.14,23.34-3.37,31.95-16.17,15.99-23.78,31.78-47.84,54.24-55.85.38-.16.77-.32,1.17-.47,34.13-13.03,79.21,18.67,110.33,73.55Z"/>
    <path class="cls-2" d="m995.92,265.47c-7.34-.07-19.59-.18-34.61-.27-34.85-.2-85.66-.37-121.89.05-7.96,6.53-17.13,16.16-21.29,24.82-28.18,47.64-37.98,94.35-125.11,23.06,0,0-13.89-1.27-23.3.53,9.58,14.56,21.77,27.16,36.16,37.3,1.07.69,1.99,1.3,2.71,1.82,1.6,1.07,3.23,2.13,4.89,3.17,23.68,14.5,52.58,22.74,85.16,22.74,77.37,0,153.78-46.65,197.27-113.22Z"/>
    <path class="cls-7" d="m1097.24,271.48c-1.06-2.59-20.82-3.34-32.78-3.98-25.88-1.37-36.03-1.59-60.88-1.97,0,0-2.91-.03-7.68-.07,0,0-.03,0-.07,0h.1c-4.31,6.59-8.94,12.99-13.86,19.17h.02c68.3-2.07,113.28-6.85,115.16-13.06.01-.11,0,0,0-.1Z"/>
  </g>
  <path class="cls-4" d="m954.74,535.84c-5.54-30,21.95-63.19,56.66-72.78,40.35-8.11,74.3,7.37,80.48,38.35,4.29,30.25-19.03,61.97-58.12,71.07-37,6.88-72.63-6.4-79.02-36.64h0Zm51.96-36.41c-13.51,15.42-17,35.52-7.77,44.88,9.22,9.36,27.66,4.47,41.18-10.96,13.51-15.4,16.99-35.51,7.77-44.88-9.24-9.37-27.67-4.46-41.18,10.95h0Zm-187.77-5.86c-.26-4.08-2.22-7.1-5.86-9.06-3.64-1.96-8.94-2.95-15.87-2.95h-7.04l-6.66,31.3h5.63c9.77,0,17.28-1.66,22.49-4.97,5.26-3.38,7.69-8.14,7.31-14.32h0Zm-76.93,76.27s-10.53.47-9.09-9.54l18.35-86.01c1.05-4.94,5.91-8.95,10.86-8.95h44.33c8.13,0,15.23.54,21.3,1.44,6.13.92,11.47,2.48,16,4.7,4.48,2.23,7.99,5.13,10.5,8.71,2.5,3.55,3.94,8.87,4.29,14.19.78,12.06-4.73,21.8-16.54,29.18-11.77,7.41-28.68,10.21-50.7,10.21h-12.19l-7.75,36.07h-29.36Zm-171.45-76.69c-.27-4.21-2.08-7.17-5.43-8.91-3.31-1.78-8.09-2.67-14.35-2.67h-9.97l-6.02,28.14h9.89c8.56,0,15.08-1.44,19.61-4.34,4.51-2.95,6.59-7.02,6.27-12.22h0Zm-48.59,76.69h-29.86c-2.06-.06-9.87-.84-8.59-9.55l18.35-86c1.05-4.94,5.91-8.94,10.87-8.94l50.52-.02c7.33,0,13.71.43,19.19,1.27,5.53.84,10.33,2.28,14.43,4.35,4.05,2.05,6.77,4.03,9.47,8.07,2.81,4.16,3.51,7.27,3.88,12.28.88,12-4.32,20.13-14.99,26.96-9.86,5.19-23.44,6.02-26.69,6.09,0,0-3.33.74.51,1.73,0,0,4.73,1.21,8.63,4.66,8.35,6.65,14.49,13.53,33.44,39.1h-44.77s-7.7-15.44-23.71-38.51c-3.57-5.14-9.33-4.28-11.49-4.52l-9.17,43.02h0Zm620.14-20.17h36.18l-2.48,11.62c-.98,4.72-5.95,8.55-10.75,8.55h-56.96c-2.06-.06-9.86-.84-8.59-9.55l18.34-86c1.05-4.94,5.92-8.94,10.86-8.94l31.45-.02-18.04,84.33h0Zm-468.9-41.55h47.51l-2.39,10.96c-.93,4.84-5.9,8.96-10.85,8.96h-38.51l-4.64,21.62h47.55l-2.47,11.62c-.97,4.72-5.95,8.55-10.75,8.55h-68.36c-2.06-.06-9.86-.84-8.6-9.55l18.35-86c1.06-4.94,5.91-8.94,10.86-8.94l78.94-.02-2.41,11.21c-1.06,4.95-5.92,8.95-10.85,8.95h-38.57l-4.81,22.62h0Zm291.27-42.76l-2.39,11.21c-1.43,5.21-5.27,8.82-10.86,8.93h-2.52c-22.59.09-24.01,6.24-28.34,27.2l-5.39,24.88c-6.6,31.68-35.2,32.29-37.62,32.29h-57.24s2.41-11.22,2.41-11.22c1.47-5.51,5.57-8.57,10.87-8.96h13.75c22.59-.07,24.01-6.19,28.33-27.15l5.39-24.88c6.8-31.58,41.25-32.28,46.53-32.28h37.09Z"/>
</svg>