<?xml version="1.0" encoding="UTF-8"?>
<svg id="Layer_2" data-name="Layer 2" xmlns="http://www.w3.org/2000/svg" viewBox="0 0 1007.22 216.06">
  <defs>
    <style>
      .cls-1 {
        fill: #fff;
        stroke-width: 0px;
      }
    </style>
  </defs>
  <g id="Layer_1-2" data-name="Layer 1">
    <g>
      <path class="cls-1" d="m47.71,34.06c6.15-2.6,13.13-3.9,20.93-3.9v31.2c-10.4,0-19.24,3.64-26.52,10.92-7.28,7.63-10.92,16.47-10.92,26.52v65.26H0V33.8h31.2v10.14c4.85-3.99,10.35-7.28,16.51-9.88Z"/>
      <path class="cls-1" d="m208.26,33.8v130.26h-31.2v-65c0-10.4-3.64-19.24-10.92-26.52-7.28-7.28-16.12-10.92-26.52-10.92-5.03,0-9.84.96-14.43,2.86-4.59,1.91-8.62,4.59-12.09,8.06-7.28,7.28-10.92,16.12-10.92,26.52s3.64,18.98,10.92,26.26c3.47,3.64,7.5,6.37,12.09,8.19,4.59,1.82,9.4,2.73,14.43,2.73s9.88-.87,14.04-2.6l11.18,27.82c-7.97,3.99-17.25,5.98-27.82,5.98-9.53,0-18.33-1.78-26.39-5.33s-15.04-8.45-20.93-14.69c-5.89-6.24-10.49-13.52-13.78-21.84-3.29-8.32-4.94-17.16-4.94-26.52s1.65-18.46,4.94-26.78c3.29-8.32,7.89-15.6,13.78-21.84,5.89-6.24,12.87-11.13,20.93-14.69,8.06-3.55,16.86-5.33,26.39-5.33,8.49,0,16.03,1.3,22.62,3.9,6.58,2.6,12.39,5.89,17.42,9.88v-10.4h31.2Z"/>
      <path class="cls-1" d="m339.81,147.42c-6.24,6.24-13.52,11.14-21.84,14.69s-17.25,5.33-26.78,5.33-18.46-1.78-26.78-5.33-15.6-8.45-21.84-14.69c-6.24-6.24-11.14-13.52-14.69-21.84-3.55-8.32-5.33-17.16-5.33-26.52s1.77-18.46,5.33-26.78c3.55-8.32,8.45-15.6,14.69-21.84,6.24-6.24,13.52-11.13,21.84-14.69,8.32-3.55,17.25-5.33,26.78-5.33s18.46,1.78,26.78,5.33c8.32,3.55,15.6,8.45,21.84,14.69l-22.1,22.1c-7.28-7.28-16.12-10.92-26.52-10.92s-18.89,3.64-26.52,10.92c-7.28,7.28-10.92,16.12-10.92,26.52s3.64,18.98,10.92,26.26c3.64,3.64,7.71,6.37,12.22,8.19,4.51,1.82,9.27,2.73,14.3,2.73,10.57,0,19.41-3.64,26.52-10.92l22.1,22.1Z"/>
      <path class="cls-1" d="m482.29,33.8v182.26h-31.2v-117c0-10.4-3.64-19.24-10.92-26.52-7.63-7.28-16.47-10.92-26.52-10.92s-19.24,3.64-26.52,10.92c-7.28,7.28-10.92,16.12-10.92,26.52s3.64,18.98,10.92,26.26c3.47,3.64,7.5,6.37,12.09,8.19,4.59,1.82,9.4,2.73,14.43,2.73s9.88-.87,14.04-2.6l11.18,27.82c-8.32,3.99-17.6,5.98-27.82,5.98-9.53,0-18.33-1.78-26.39-5.33s-15.04-8.45-20.93-14.69c-5.89-6.24-10.49-13.52-13.78-21.84-3.29-8.32-4.94-17.16-4.94-26.52s1.65-18.46,4.94-26.78c3.29-8.32,7.89-15.6,13.78-21.84,5.89-6.24,12.87-11.13,20.93-14.69,8.06-3.55,16.86-5.33,26.39-5.33,8.49,0,16.03,1.3,22.62,3.9,6.59,2.6,12.39,5.89,17.42,9.88v-10.4h31.2Z"/>
      <path class="cls-1" d="m621.13,34.06v130h-31.2v-9.88c-4.68,3.99-9.97,7.24-15.86,9.75-5.89,2.51-12.48,3.77-19.76,3.77-8.5,0-16.21-1.6-23.14-4.81-6.93-3.21-12.87-7.58-17.81-13.13-4.94-5.54-8.75-12.04-11.44-19.5-2.69-7.45-4.03-15.42-4.03-23.92V34.06h31.2v72.28c0,8.15,3.03,15.25,9.1,21.32,5.89,5.89,13,8.84,21.32,8.84s15.69-2.95,21.58-8.84,8.84-13,8.84-21.32V34.06h31.2Z"/>
      <path class="cls-1" d="m736.82,114.66h-68.12c1.73,3.99,4.25,7.54,7.54,10.66,3.64,3.64,7.71,6.37,12.22,8.19,4.5,1.82,9.27,2.73,14.3,2.73,7.1,0,13.43-1.65,18.98-4.94l32.5,13c-6.24,7.28-13.78,12.96-22.62,17.03-8.84,4.07-18.46,6.11-28.86,6.11-9.54,0-18.46-1.78-26.78-5.33s-15.6-8.45-21.84-14.69c-6.24-6.24-11.14-13.52-14.69-21.84-3.55-8.32-5.33-17.16-5.33-26.52s1.78-18.46,5.33-26.78c3.55-8.32,8.45-15.6,14.69-21.84s13.52-11.13,21.84-14.69c8.32-3.55,17.25-5.33,26.78-5.33s18.46,1.78,26.78,5.33c8.32,3.55,15.6,8.45,21.84,14.69s11.14,13.52,14.69,21.84c3.55,8.32,5.33,17.25,5.33,26.78,0,5.55-.61,10.75-1.82,15.6h-32.76Zm-34.06-53.04c-10.05,0-18.89,3.64-26.52,10.92-3.29,3.29-5.81,6.93-7.54,10.92h68.12c-1.74-3.99-4.25-7.62-7.54-10.92-7.28-7.28-16.12-10.92-26.52-10.92Z"/>
      <path class="cls-1" d="m854.34,164.06h-28.6c-5.89,0-11.44-1.12-16.64-3.38-5.2-2.25-9.71-5.33-13.52-9.23-3.81-3.9-6.85-8.45-9.1-13.65-2.25-5.2-3.38-10.75-3.38-16.64V7.8l31.2-7.8v49.66h18.2l7.8,31.2h-26v40.3c0,3.29,1.12,6.07,3.38,8.32,2.25,2.25,4.94,3.38,8.06,3.38h20.8l7.8,31.2Z"/>
      <path class="cls-1" d="m952.1,102.44l49.92,61.62h-40.04l-29.9-39.52-29.9,39.52h-40.04l49.92-61.62-55.12-68.12h40.04l35.1,45.76,35.1-45.76h40.04l-55.12,68.12Z"/>
    </g>
  </g>
</svg>