<svg xmlns="http://www.w3.org/2000/svg" viewBox="0 0 228.2 105.11"><defs><style>.cls-1,.cls-2{fill-rule:evenodd;}.cls-2{fill:#dabe83;}</style></defs><title>Ativo 1</title><g id="Camada_2" data-name="Camada 2"><g id="Camada_1-2" data-name="Camada 1"><path class="cls-1" d="M15.58,85.16c-.08,2.11,1.13,2.51,1.85,2.25s2.78-1,4.63-1.76,6.46-2.73,9-4.67-.36-3.61-1.33-4.08a12.91,12.91,0,0,0-4.26-.78c-1.69-.11-5.74-.8-7.51-.58s-2,1.08-2.07,2.23-.19,5.28-.27,7.39Zm1.1-27.65a55.11,55.11,0,0,0-.32,6.4s7.05-3.24,9.9-4.68a16.61,16.61,0,0,0,5.53-4.14C34,53,31,50.51,28.63,50a20.33,20.33,0,0,0-8,.5c-1.55.52-2.67.24-2.88,1.59-.15,1-.79,3.8-1.11,5.39Zm-16-1.37c-2.38-.59,1.85-5.68,2.68-6.09a72.52,72.52,0,0,1,10.33-3.28c4.11-.92,14-1.54,16.12-1.89s7.31.17,8.93.83c1.37.79,3.46,1.06,3.88,4.91.21,1.85-8.65,7.91-10.34,9-3,2-11.66,6.66-12.69,7.6s-3.42,1.53-1.38,2.5,10.84,1.52,14.44,2.83,12,3,8.74,6.47a33.16,33.16,0,0,1-5.88,5c-2.14,1.32-18.85,7-19.37,7.42-1.64.68-1.62,1.28-1.59,1.47A1.36,1.36,0,0,1,14,94.62a11.07,11.07,0,0,1-3.52,1C10,95.5,9,92.94,8.08,93.1s-4.25-.58-3.28-1.9,2.88-1,3.72-4.44a27.87,27.87,0,0,0,.34-8s.45-4.66-2-4.51S3.62,72.33,5,71.4s3.82-1.19,3.9-5a97.57,97.57,0,0,1,1.57-11.5c1.11-2.32.67-2.71-1.2-2.33C6.78,53.09,2.31,56.54.72,56.14Z"/><path class="cls-1" d="M52.47,64.61a8.23,8.23,0,0,0-1.39,3.08,14.46,14.46,0,0,0,0,3.89,3.06,3.06,0,0,0,1.26,2.6c.57.57,1.93.33,2.78-.1a5.23,5.23,0,0,0,1.79-1.43,6.82,6.82,0,0,0,2-4.58,24.6,24.6,0,0,0-.51-5.13c-.29-1.29-.79-1.15-1.29-1.5a2.28,2.28,0,0,0-2.28.42,15.5,15.5,0,0,0-2.4,2.75Zm30.24-9.84c.36,1.2,3.22,3.32,3.22,3.32,2.35,2.15,3.34,0,3.5-.44a46.82,46.82,0,0,0,2.13-5.95c.6-3,.4-3.68.82-5.46s.11-4.39.61-5.07,1.26-2,2.47-1.14,1.6,6.87,1.6,6.87a31.64,31.64,0,0,0,1.71,6.8c1.38,3.68,4.35,4.09,5.19,1.68a42.13,42.13,0,0,0,1.68-7.3c.15-1.37.17-5.91.17-5.91s-.51-4.9.15-6,1.58-3,2.61-.83c1.11,2.41.86,7.75.8,8.6-.16,2.38-.31,10-1.13,12.13a22.52,22.52,0,0,1-2.45,4.57s-1.35,2.49-3.25,2.47-3.39-1.39-4.41-3a38.52,38.52,0,0,1-3.34-6.61c-.13-1.94-1.72,3.78-2.66,5.47s-.6,4-2.81,4.84-3.53-.63-5.12-1.76c-2-1.44-2.49-2.32-3-2s-4,5.8-5.56,8.32-2.58,4.16-4.62,4.26-3,.56-4.1-.57-.84-2.42-2.52-2.1l-1.82.37c-1.15.21-1.88,2.31-2.19,3.46s-2,4.43-3.15,4.94a8.87,8.87,0,0,1-10.41-2.5c-.63-1-.73-2.21-1.89-1.58s-2.3.72-2.41.3l-.34-1.4c-.42-1.26,2-1.59,2.85-3.59s2.32-9.4,3.06-10.56.3-2.52,2.72-3.15,2.91.72,4.23.06c1.53-.76,5.56.66,5.56.66a5.14,5.14,0,0,1,2.25,3.16c.52,2.2,0,4.86,1.27,4.75s1.27-4.27,3-7.91,5.9-8.34,7-9.65A27.49,27.49,0,0,1,77,44.53c.72-.52,2.51-1.2,3.42-.38.74.67.68,3.07.74,4.55a34.5,34.5,0,0,0,1.58,6.07Zm-4.16-3.7c-1-.83-2.34,1.74-3.19,3.29-1.9,3.44-2,3.17-3.14,5.53S70.92,65.7,74,63.06s2.89-3.48,3.76-5.18C78.56,56.38,79.59,51.9,78.55,51.07Z"/><path class="cls-1" d="M182.7,14.35c-1.08-1.09-4.47,2.86-6.26,4.64-1.63,1.63-6.21,10.79-2.6,8.25,2.81-2,5.55-3.47,6.62-5.48,0,0,2.93-6.72,2.24-7.41Zm3.64,6.84c.28,1.59.89,2.28,1.81,2.53s2.61-1.4,2.61-1.4,1.81-2.47,3.37-2.62,2.76.08,3.48,1,.79,4.65.82,6.34c0,.86.24,2.8-2.86,5.74-1.4,1.34-3.2,2-5.48,3.53-3.52,2.3-53.33,21.65-55.36,22.39-7.26,2.64-30.16,11.44-48,20.27C77.12,83.69,52,99.15,52,99.15s-2.48,2.79-7.46,1.62-3.2-.9-4.29-1.26C38.64,99,40,96.88,40,96.88a16.81,16.81,0,0,1,5.41-3.51c2.92-1,12-5.7,12-5.7s23.4-11.26,26-12.29S102.7,66.9,106.06,66s18.14-6.74,22.24-8.35,13.59-5,17.1-6.27,13.16-5.27,15.21-6.14,21.1-8.08,24.75-9.69c7.49-3.3,9.26-5.63,10-7.68s.73-4.72-.15-5.15-3.83,3.91-3.83,3.91a10.3,10.3,0,0,1-3.68,2.94,3.85,3.85,0,0,1-5.24-1.66s-1.54-3.52-3.61-.91-4,5.5-5.8,6.67a6.19,6.19,0,0,1-5.79,2.56,2.69,2.69,0,0,1-2-1.9c-.28-1.11.45-3,.18-3-.47.08-4.83,8.41-5.1,8.85-1.23,2-1.11,1.4-3.16,1.84-.42.1-2.53-1.64-3.11-4-1.18-4.84-1.46-9-1.77-8.93s-2.37,6.44-2.73,7.52a51.27,51.27,0,0,1-3.72,8.52c-1.2,2.21-3.85,5.47-5.22,5.77-2.21.49-4.13-2.65-4.33-5.61a3,3,0,0,1,1.06-2c.44-.33,4-1.92,4.29-2.36s-1-3-2.15-5.82c-.85-2.06-2.63-3.85-3.07-3.54-1.6,1.16-2.77,5.48-3.63,7s-2.39,4.54-3,5.62c-1,1.76-1.9,4.59-3.57,6.67a5.69,5.69,0,0,1-6.94,1.17c-3.88-1.85-1.17-12.83-3.37-11.25-2.68,1.91-2.79.07-2.79.07a2.86,2.86,0,0,1,0-2.35c.24-.55,4.38-3.36,4.76-3.63a1.93,1.93,0,0,1,2.4-.35c.74.51.44,9.78.87,10.84s.67,2.22,1.37,2.44,2.11-.94,3.19-3a103.55,103.55,0,0,0,4.35-10.81c.29-.73,2.77-7.69,3.36-8.42s3.34-3.68,5.53-2.21,3.62,5.09,4,5.87a34.52,34.52,0,0,1,1.18,3.34c.41,1.13.56,1.57.56,1.57.23.56,1.09,3.6,1.68,2.28.87-2,5.18-19.12,4.5-20.87a24.4,24.4,0,0,0-3.31.7,22.26,22.26,0,0,1-6.07,1c-1.51-.06-2.15-4.16-1.45-5a3.15,3.15,0,0,1,2.62-1.24s7.2-1.73,7.9-2,.56-1.77.7-2.78.75-3.44,1.59-4.21a2,2,0,0,1,2.82-.07,8.29,8.29,0,0,1,1,3.39c.15,1,0,2.45.77,2.35s1.45-.7,1.62,1.2,1.06,3.91.33,4.15a17.6,17.6,0,0,0-2.32,1s.74,8.66,1,10.32.59,6,.87,7.18.17,3.29,1.8,2.18,5-8.06,6.58-10.33c1.3-1.88,7.59-11.21,9.4-13,2-2,3.23-1.68,4.68-2.25s3.74-1.08,4.06,1.25S186.06,19.6,186.34,21.19Z"/><path class="cls-1" d="M114.34,22.53a9.59,9.59,0,0,0-.58,3,5.76,5.76,0,0,0,1.87,3.89c1.15,1.15,3.61-.32,4.21-1.17a7.86,7.86,0,0,0,1.06-2.79,12.27,12.27,0,0,0,.29-3.38,5.35,5.35,0,0,0-1.1-2.39c-.46-.57-1.56-.46-2.23-.25a4.15,4.15,0,0,0-1.71.73A6.9,6.9,0,0,0,114.34,22.53Z"/><path class="cls-1" d="M118.32,67.64c-4.64,0-13,9.47-13,18.62,0,7,2.71,7.87,5.41,7.87,3.76,0,7.24-3.93,7.4-3.81a12.46,12.46,0,0,1-.4,3.5c-.33,1.92-.59,5.55-.79,6.28s2.48.57,3.26-1.59,3.1-11.44,3.1-13.52-3.16-1.47-4-.32-3.91,6-7,6c-2.18,0-2.46-3.66-2.46-4.94,0-5.85,3.63-14.64,7.71-14.64,2.74,0,3,4.67,3.27,5.65s1.59,1.27,2.94,0,1.13-3.26.4-5S122.14,67.64,118.32,67.64Z"/><path class="cls-1" d="M135.42,85.36c0,1.79-2.66,5-4.43,5-.56,0-.93-.19-.93-1.06a7.51,7.51,0,0,1,.85-3c.29-.28.86-.31,1.21-.66s.64-.85.92-1.14A1.93,1.93,0,0,1,134.2,84c1.19,0,1.22.84,1.22,1.39Zm12.27-11.51A19.66,19.66,0,0,1,145,80.38c-.5.75-.78,1.15-.78.65,0-2,1.62-7.64,3.66-8.83,0,0-.06.91-.17,1.65Zm11.05-1.8a16.51,16.51,0,0,1-1.67,6.41c-.69,1.63-1,1.74-.92.86.25-6.5,2.57-8,2.57-8s0,.42,0,.77Zm-1.14,28a2.59,2.59,0,0,1-2.71,2.37c-1.46,0-2.86-1.34-2.86-4.47S155,91.16,155,91.16c.82,4.34,2.64,6.74,2.64,8.85Zm7.19-19.92a35,35,0,0,0-7.39,5.13c0-.12-.48.38-.48.27.28-4.1,3.83-5.41,3.83-15.59,0-1.27-.2-4-1.71-4-4.13,0-5.91,12.76-5.4,16.61.14,1-.67,1.77-1.43,2.67,0,0-2.18,3.17-4.65,3.28s-3.08-3.42-3.08-3.42,6.57-8.53,6.09-16.75c-.11-1.79-1.48-3-1.92-2.53s-2.84.43-6.08,10a29.73,29.73,0,0,0-1.37,8.89s-3.23,3.42-4.38,3.42A8,8,0,0,0,138.47,83c0-1.57-1.91-2.6-2.81-2.6s-1.58.95-1.84.68.42-.84.34-1.09-1.33-.48-1.84-.34-6.25,5.5-7.39,6.77-.41,3.25-.2,3,1.86-1.68,2.11-1.43-.34.65-.34,2.12A3.05,3.05,0,0,0,129.85,93c6.49,0,11.83-4.72,11.83-4.72a4.29,4.29,0,0,0,4.78,3.63c4.34-.2,7.8-4.58,7.8-4.58a6.13,6.13,0,0,0,.07.75c-3,3.34-5,7.08-5,9.84,0,1.71.82,7.11,5.6,7.18a5.29,5.29,0,0,0,5.2-5c0-3.18-2.1-5.57-2.81-11a40.65,40.65,0,0,1,6.09-5.06c1.76-1.21,3.26-2.21,3.89-2.66C168.21,80.75,165.63,79.62,164.79,80.09Z"/><path class="cls-1" d="M197.12,66.69c-1.67.08-6.12,2.78-7.2,3.65s-3.52,3.32-3.52,6.14c0,4.08,7.11,8.33,7.11,10.6s-3.55,3-8.43,3.73c-1.27.2-1.63.41-1.27,1.08s1.43.71,1.73,1.27,1.33,1,4.47,0a11.17,11.17,0,0,0,6.57-6.2c.65-1.39-1.19-4.15-2.46-5.53s-3.38-3.52-3.79-4.7-.87-1.89,0-3,2.95-3.26,3.22-3.07-.51,1.07-.87,1.33-.76,1.07-.25,1.28,4.65-2.47,5.44-3.36S198.59,66.61,197.12,66.69Z"/><path class="cls-1" d="M174.6,82.58s3.6-3,3.43-3.56-2.35-.71-3.43,3.56Zm-4.29,7.17c.44.63,4.21-.83,3.92-1.26a30.42,30.42,0,0,1-1.16-3c-.34.2-3.2,3.63-2.76,4.26Zm5.47-2.62s2.74-2.22,3.1-2.71.63.53.53,1.65-2.56,2.61-2,3.14.77.1,1.4.29-1.11,2.67-1.7,2.77-1.15-1.51-1.46-1.49-.76.56-2.32,1.53-3.23.87-4.52-1.35.61-5.09,2.35-6.06,1.5-.62,1.6-3,3.78-4.11,4.7-4.16,2.17,0,2.17,1.44-3.58,4.56-4.76,5Z"/><path class="cls-1" d="M205.12,86.31c0,.14.15,2.41.17,2.51s.06.22.23,0a19.15,19.15,0,0,0,2.56-3.8,11,11,0,0,0,1.33-4.4c0-.51-.25-.51-.46-.28a26.53,26.53,0,0,0-2,3.12c-.68,1.3-1.7,2.49-1.79,2.82Zm16-3.56a4.33,4.33,0,0,0-1.75,1.15c-.72.65-2,1.69-2.44,2.07s-1.45,1.42-1.45,2.27,1.86,0,2.46-.31a5,5,0,0,0,1.61-1.3,9.4,9.4,0,0,0,1.66-2.31c.38-.94.44-1.57-.09-1.57Zm6,6.91c-.7.82-1.06,2-2.38,2s-1.74-1-2.38-1.88c-.8-1.14-.87-1.69-1.17-1.6a41.27,41.27,0,0,0-3.45,2.67c-1.3,1-2.26,2.39-3.35,2.06s-1.53-.35-2.06-1.06c-.79-1.07-.4-3.62-.13-4.3A9.65,9.65,0,0,1,214.86,84a21.65,21.65,0,0,1,2.26-1.94,26.83,26.83,0,0,0-4.71,1.86c-2.52,2.64-3.66,4.62-4.76,5.8a6.63,6.63,0,0,1-2.43,1.86s-1,4.87-1.2,6.84-1.48,4.08-2.68,4-1-2.32-.73-5.06,1.64-5.51,1.72-10-3.25-5-3.78-4.79a1.19,1.19,0,0,1-1.39-.34c-.33-.43-.32-.83,0-1,0,0-.47-.77,2.75-.77s4.13,3.53,4.67,3.53,2.58-7,6-7,1.3,3.85,1.49,4.19,3.38-1.09,4.19-1.21c0,0,3.74-.56,5.5-.71l0,0c.48-.15,1.55-.17,1.87.43s-.2,1.74-.45,2.54a19.45,19.45,0,0,0-.3,3.49A6.72,6.72,0,0,0,224,88c.83,1.58,1.79.64,1.93.42S227.63,89.06,227.12,89.66Z"/><path class="cls-2" d="M16.55,83.64c-.08,2.11,1.13,2.51,1.85,2.25s2.78-1,4.63-1.76,6.46-2.72,9-4.67-.36-3.61-1.34-4.07a12.88,12.88,0,0,0-4.26-.79c-1.69-.1-5.73-.79-7.51-.58s-2,1.08-2.07,2.24-.19,5.27-.27,7.38ZM17.66,56a55.56,55.56,0,0,0-.33,6.39s7.05-3.23,9.91-4.68a16.78,16.78,0,0,0,5.52-4.13C35,51.44,32,49,29.61,48.52a20.38,20.38,0,0,0-8,.49c-1.55.52-2.67.25-2.88,1.59-.15,1-.78,3.8-1.1,5.4Zm-16-1.37c-2.38-.6,1.86-5.69,2.69-6.1A73.15,73.15,0,0,1,14.7,45.25c4.12-.92,14-1.53,16.13-1.89s7.31.17,8.92.84c1.37.79,3.47,1.06,3.89,4.91.2,1.85-8.66,7.91-10.35,9-2.95,1.94-11.65,6.65-12.69,7.6s-3.42,1.53-1.38,2.5,10.85,1.51,14.44,2.82,12,3,8.75,6.48a33.89,33.89,0,0,1-5.88,5c-2.15,1.32-18.86,7-19.38,7.42-1.64.67-1.62,1.28-1.59,1.47a1.34,1.34,0,0,1-.63,1.72,11.67,11.67,0,0,1-3.51,1C11,94,10,91.42,9.05,91.58S4.81,91,5.78,89.68s2.88-1,3.72-4.44a28.1,28.1,0,0,0,.33-8s.45-4.66-2-4.51S4.59,70.82,6,69.89s3.81-1.19,3.89-5A96.82,96.82,0,0,1,11.48,53.4c1.11-2.32.66-2.7-1.21-2.33C7.75,51.58,3.28,55,1.69,54.63Z"/><path class="cls-2" d="M53.44,63.09a8.36,8.36,0,0,0-1.39,3.09,14.12,14.12,0,0,0,0,3.89,3,3,0,0,0,1.26,2.6c.56.56,1.92.32,2.78-.1a5.23,5.23,0,0,0,1.78-1.43,6.84,6.84,0,0,0,2-4.58,25.43,25.43,0,0,0-.52-5.14c-.28-1.28-.78-1.14-1.28-1.5a2.28,2.28,0,0,0-2.29.43,15.39,15.39,0,0,0-2.4,2.74Zm30.24-9.83c.36,1.19,3.22,3.31,3.22,3.31,2.35,2.16,3.35,0,3.51-.44a48.9,48.9,0,0,0,2.13-6c.59-3,.39-3.67.81-5.46s.11-4.39.61-5.07,1.26-2,2.48-1.13S98,45.39,98,45.39a31.92,31.92,0,0,0,1.72,6.79c1.37,3.69,4.35,4.1,5.18,1.68a41.14,41.14,0,0,0,1.68-7.29c.16-1.38.18-5.92.18-5.92s-.51-4.89.15-6,1.58-3.06,2.6-.83c1.11,2.4.86,7.75.8,8.59-.15,2.38-.3,10-1.13,12.14a22.76,22.76,0,0,1-2.44,4.57s-1.36,2.48-3.26,2.47-3.39-1.39-4.4-3a38,38,0,0,1-3.35-6.61c-.13-1.93-1.71,3.79-2.66,5.47s-.6,4-2.8,4.85-3.53-.64-5.13-1.76c-2-1.45-2.48-2.33-2.94-2s-4,5.81-5.57,8.32S74.08,71.08,72,71.18s-3,.57-4.09-.56-.85-2.42-2.52-2.1l-1.82.36c-1.16.22-1.88,2.31-2.2,3.46s-2,4.44-3.15,4.94a8.84,8.84,0,0,1-10.4-2.5c-.63-1-.74-2.2-1.89-1.57s-2.31.71-2.41.29-.34-1.4-.34-1.4c-.42-1.26,2-1.58,2.85-3.58s2.32-9.41,3-10.56.3-2.52,2.72-3.15,2.91.72,4.24,0c1.52-.76,5.56.66,5.56.66a5.19,5.19,0,0,1,2.24,3.16c.53,2.21,0,4.86,1.28,4.76s1.27-4.28,3-7.91,5.9-8.34,7-9.66A27.28,27.28,0,0,1,77.94,43c.72-.53,2.51-1.21,3.42-.39.74.67.68,3.07.74,4.55a35.51,35.51,0,0,0,1.58,6.08Zm-4.15-3.7c-1-.83-2.34,1.73-3.2,3.28-1.89,3.44-2,3.17-3.14,5.53s-1.3,5.82,1.82,3.17,2.88-3.48,3.75-5.18C79.53,54.86,80.57,50.39,79.53,49.56Z"/><path class="cls-2" d="M183.67,12.83c-1.08-1.08-4.47,2.86-6.25,4.65-1.63,1.62-6.22,10.79-2.6,8.24,2.81-2,5.54-3.46,6.62-5.47,0,0,2.92-6.72,2.23-7.42Zm3.65,6.84c.27,1.59.88,2.28,1.8,2.53s2.62-1.4,2.62-1.4,1.81-2.46,3.37-2.62,2.75.09,3.47,1,.8,4.66.83,6.34c0,.86.23,2.81-2.86,5.75-1.41,1.34-3.21,2-5.48,3.52-3.52,2.3-53.34,21.65-55.37,22.39-7.26,2.64-30.16,11.45-48,20.28C78.1,82.17,53,97.63,53,97.63s-2.49,2.79-7.46,1.62-3.2-.89-4.3-1.25c-1.61-.53-.29-2.64-.29-2.64a16.82,16.82,0,0,1,5.41-3.5c2.93-1,12-5.71,12-5.71s23.4-11.26,26-12.28,19.31-8.49,22.67-9.36,18.14-6.75,22.24-8.36,13.59-4.95,17.1-6.27,13.16-5.26,15.21-6.14,21.1-8.07,24.76-9.68c7.48-3.3,9.26-5.63,10-7.68s.72-4.72-.15-5.16-3.84,3.92-3.84,3.92a10.21,10.21,0,0,1-3.68,2.93,3.86,3.86,0,0,1-5.24-1.65s-1.53-3.53-3.61-.91-4,5.49-5.79,6.66a6.18,6.18,0,0,1-5.79,2.56,2.68,2.68,0,0,1-2-1.89c-.28-1.11.46-3,.18-3-.47.08-4.82,8.42-5.09,8.86-1.24,2-1.11,1.39-3.17,1.84-.42.09-2.53-1.64-3.11-4-1.18-4.85-1.46-9-1.76-8.93s-2.38,6.44-2.74,7.52a50.81,50.81,0,0,1-3.72,8.52c-1.2,2.2-3.85,5.47-5.22,5.77-2.21.48-4.12-2.66-4.32-5.62a3,3,0,0,1,1-2c.44-.32,4-1.91,4.29-2.35s-1-3-2.14-5.83c-.86-2.06-2.64-3.84-3.08-3.53-1.6,1.15-2.76,5.48-3.63,6.94s-2.39,4.54-3,5.62c-1,1.76-1.9,4.6-3.56,6.68a5.71,5.71,0,0,1-7,1.17c-3.87-1.85-1.17-12.83-3.37-11.26-2.67,1.92-2.79.07-2.79.07a2.89,2.89,0,0,1,0-2.34c.24-.55,4.38-3.36,4.76-3.63a1.92,1.92,0,0,1,2.4-.35c.74.5.44,9.78.88,10.84s.66,2.21,1.36,2.43,2.11-.93,3.19-3A103.62,103.62,0,0,0,131,32.57c.3-.73,2.77-7.69,3.36-8.43s3.34-3.67,5.54-2.21,3.61,5.09,4,5.87c.56,1.26.6,1.7,1.18,3.34.4,1.13.55,1.58.55,1.58.24.55,1.09,3.59,1.68,2.27.87-2,5.18-19.12,4.5-20.87a24.4,24.4,0,0,0-3.31.7,22.26,22.26,0,0,1-6.07,1c-1.5-.06-2.15-4.16-1.45-4.95a3.12,3.12,0,0,1,2.63-1.24s7.19-1.74,7.89-2,.56-1.76.7-2.78S153,1.4,153.79.63A2,2,0,0,1,156.6.57a8,8,0,0,1,1,3.38c.16,1,0,2.45.77,2.35.88-.11,1.45-.7,1.62,1.2s1.07,3.91.33,4.15a19.59,19.59,0,0,0-2.31,1s.74,8.67,1,10.32.59,6,.87,7.19.18,3.29,1.8,2.18,5-8.07,6.58-10.33c1.3-1.89,7.59-11.22,9.4-13,2-1.95,3.23-1.68,4.69-2.25s3.74-1.07,4,1.26S187,18.08,187.32,19.67Z"/><path class="cls-2" d="M115.31,21a9.89,9.89,0,0,0-.58,2.95,5.79,5.79,0,0,0,1.87,3.9c1.15,1.14,3.61-.32,4.22-1.17a8.23,8.23,0,0,0,1.06-2.8,12.57,12.57,0,0,0,.29-3.37,5.27,5.27,0,0,0-1.11-2.39c-.46-.57-1.55-.46-2.23-.25a4.15,4.15,0,0,0-1.71.73A6.72,6.72,0,0,0,115.31,21Z"/><path class="cls-2" d="M119.29,66.12c-4.63,0-13,9.47-13,18.62,0,7,2.71,7.88,5.4,7.88,3.76,0,7.24-3.94,7.4-3.82s-.07,1.58-.39,3.5-.59,5.55-.8,6.29,2.49.57,3.26-1.59,3.11-11.45,3.11-13.53-3.17-1.46-4-.32-3.92,6-7,6c-2.19,0-2.47-3.66-2.47-4.93,0-5.85,3.63-14.64,7.72-14.64,2.74,0,3,4.67,3.26,5.65s1.6,1.26,2.94,0,1.14-3.26.4-5S123.11,66.12,119.29,66.12Z"/><path class="cls-2" d="M136.4,83.84c0,1.79-2.67,5-4.44,5-.55,0-.92-.19-.92-1.06a7.3,7.3,0,0,1,.85-3c.29-.29.85-.32,1.21-.67s.63-.84.92-1.13a1.92,1.92,0,0,1,1.15-.54c1.2,0,1.23.84,1.23,1.39Zm12.26-11.5A19.47,19.47,0,0,1,146,78.86c-.5.75-.78,1.15-.78.65,0-2,1.63-7.63,3.66-8.82,0,0-.05.91-.17,1.65Zm11.05-1.81A16.46,16.46,0,0,1,158,76.94c-.69,1.63-.95,1.75-.92.87.25-6.51,2.57-8,2.57-8s0,.42,0,.76Zm-1.13,28a2.58,2.58,0,0,1-2.71,2.37c-1.46,0-2.87-1.33-2.87-4.47s2.94-6.75,2.94-6.75c.82,4.34,2.64,6.75,2.64,8.85Zm7.18-19.92a35.32,35.32,0,0,0-7.38,5.13c0-.11-.49.39-.48.27.27-4.1,3.82-5.4,3.82-15.58,0-1.27-.2-4-1.7-4-4.14,0-5.92,12.76-5.4,16.61.13,1-.68,1.78-1.44,2.67,0,0-2.17,3.17-4.65,3.28s-3.08-3.42-3.08-3.42S152,75,151.54,66.82c-.11-1.8-1.48-3-1.92-2.53s-2.84.43-6.08,10a29.77,29.77,0,0,0-1.37,8.89s-3.23,3.42-4.37,3.42a8,8,0,0,0,1.64-5.12c0-1.57-1.9-2.6-2.8-2.6s-1.58,1-1.85.68.42-.85.34-1.09-1.33-.48-1.84-.35-6.24,5.51-7.39,6.77-.4,3.25-.2,3,1.87-1.69,2.12-1.44-.34.66-.34,2.13a3,3,0,0,0,3.35,2.86c6.48,0,11.82-4.71,11.82-4.71a4.29,4.29,0,0,0,4.79,3.62c4.33-.19,7.79-4.58,7.79-4.58.05.39,0,.15.07.75-3,3.34-5,7.09-5,9.85,0,1.71.82,7.1,5.61,7.17a5.28,5.28,0,0,0,5.19-5c0-3.18-2.1-5.56-2.8-11a40.5,40.5,0,0,1,6.08-5.06c1.76-1.21,3.26-2.21,3.9-2.67C169.18,79.24,166.6,78.11,165.76,78.57Z"/><path class="cls-2" d="M198.09,65.17c-1.67.09-6.12,2.79-7.19,3.66s-3.53,3.32-3.53,6.13c0,4.09,7.11,8.33,7.11,10.61s-3.54,3-8.42,3.73c-1.28.2-1.64.41-1.28,1.07s1.43.72,1.74,1.28,1.32,1,4.46,0a11.14,11.14,0,0,0,6.57-6.2c.66-1.39-1.18-4.14-2.46-5.52s-3.38-3.53-3.78-4.7-.87-1.89,0-3,2.95-3.26,3.21-3.06-.5,1.07-.86,1.32-.77,1.08-.26,1.28,4.66-2.47,5.45-3.35S199.56,65.09,198.09,65.17Z"/><path class="cls-2" d="M175.57,81.06s3.61-3,3.44-3.55-2.35-.72-3.44,3.55Zm-4.28,7.17c.43.63,4.21-.82,3.92-1.26a29.46,29.46,0,0,1-1.16-3c-.34.2-3.2,3.62-2.76,4.25Zm5.46-2.61s2.74-2.23,3.1-2.71.63.53.53,1.64-2.56,2.62-2,3.15.78.09,1.41.29-1.12,2.66-1.71,2.76-1.15-1.5-1.46-1.49-.76.57-2.32,1.54-3.23.87-4.52-1.35.61-5.09,2.36-6.06,1.5-.63,1.59-3,3.78-4.12,4.7-4.17,2.18,0,2.18,1.44-3.58,4.57-4.76,5Z"/><path class="cls-2" d="M206.1,84.79c0,.15.15,2.42.17,2.51s0,.23.22,0a18.75,18.75,0,0,0,2.57-3.79,11,11,0,0,0,1.32-4.4c0-.51-.24-.51-.46-.29a29.74,29.74,0,0,0-2,3.13c-.67,1.29-1.69,2.49-1.78,2.81Zm16-3.56a4.28,4.28,0,0,0-1.76,1.15c-.71.66-2,1.7-2.44,2.08s-1.45,1.41-1.45,2.26,1.86,0,2.46-.3a5.16,5.16,0,0,0,1.61-1.3,9.76,9.76,0,0,0,1.67-2.32c.38-.94.44-1.57-.09-1.57Zm6,6.91c-.7.82-1.06,2-2.38,2s-1.74-1-2.37-1.88c-.81-1.14-.88-1.68-1.18-1.6a41.27,41.27,0,0,0-3.45,2.67c-1.3,1-2.26,2.39-3.35,2.07s-1.53-.35-2.05-1.06c-.8-1.07-.41-3.62-.14-4.3a9.54,9.54,0,0,1,2.67-3.59,23,23,0,0,1,2.26-2,27.07,27.07,0,0,0-4.71,1.87c-2.53,2.63-3.67,4.62-4.77,5.8a6.54,6.54,0,0,1-2.43,1.86s-.95,4.86-1.19,6.83-1.49,4.08-2.69,4-1-2.32-.72-5.06,1.63-5.51,1.71-10-3.25-5-3.77-4.8a1.17,1.17,0,0,1-1.39-.33c-.34-.43-.33-.83,0-1,0,0-.47-.77,2.74-.77s4.14,3.53,4.67,3.53,2.59-7,6-7,1.3,3.85,1.5,4.18,3.37-1.09,4.18-1.2c0,0,3.74-.56,5.5-.72l0,0c.48-.14,1.55-.17,1.88.43s-.21,1.75-.45,2.54a19.63,19.63,0,0,0-.3,3.5A6.84,6.84,0,0,0,225,86.49c.84,1.57,1.79.64,1.93.42S228.6,87.55,228.09,88.14Z"/></g></g></svg>